<svg width="15805" height="6011" viewBox="0 0 15805 6011" fill="none" xmlns="http://www.w3.org/2000/svg">
<path d="M1117.59 1860.25H1965.95C2084.23 1860.25 2193.9 1871 2294.97 1892.51C2398.2 1914.01 2485.29 1951.65 2556.26 2005.41C2627.22 2057.02 2679.91 2127.99 2714.32 2218.3C2748.72 2306.47 2756.25 2418.3 2736.9 2553.78C2717.54 2687.11 2679.91 2798.93 2624 2889.25C2568.08 2979.57 2498.19 3051.61 2414.33 3105.37C2332.61 3159.13 2237.99 3197.84 2130.46 3221.5C2025.09 3243 1912.19 3253.75 1791.77 3253.75H1424.04L1301.46 4144.05H798.25L1117.59 1860.25ZM1485.32 2827.96H1820.8C1865.96 2827.96 1910.04 2823.66 1953.05 2815.06C1996.06 2806.46 2035.84 2792.48 2072.4 2773.12C2108.96 2751.62 2140.14 2723.66 2165.95 2689.26C2191.75 2652.7 2207.88 2607.54 2214.33 2553.78C2222.93 2495.71 2215.41 2449.48 2191.75 2415.07C2170.25 2378.51 2139.07 2350.56 2098.21 2331.2C2059.5 2311.85 2014.34 2300.02 1962.73 2295.72C1913.27 2289.27 1864.88 2286.04 1817.57 2286.04H1559.52L1485.32 2827.96ZM2955.86 1860.25H3839.71C3955.83 1860.25 4064.43 1872.08 4165.5 1895.73C4266.57 1917.24 4352.59 1954.87 4423.56 2008.63C4494.52 2060.25 4547.21 2131.21 4581.62 2221.53C4616.02 2309.7 4623.55 2420.45 4604.2 2553.78C4580.54 2715.06 4519.25 2852.69 4420.33 2966.67C4321.41 3078.49 4189.16 3149.46 4023.57 3179.56L4468.72 4144.05H3865.51L3513.91 3231.17H3265.53L3139.73 4144.05H2636.52L2955.86 1860.25ZM3326.82 2805.38H3623.58C3668.74 2805.38 3716.05 2804.31 3765.52 2802.16C3817.13 2797.86 3864.44 2788.18 3907.45 2773.12C3950.46 2755.92 3988.09 2730.12 4020.35 2695.71C4052.6 2661.3 4073.03 2612.92 4081.63 2550.55C4090.24 2492.49 4084.86 2446.25 4065.51 2411.85C4046.15 2377.44 4019.27 2351.63 3984.86 2334.43C3950.46 2315.08 3909.6 2302.17 3862.29 2295.72C3817.13 2289.27 3771.97 2286.04 3726.81 2286.04H3397.79L3326.82 2805.38ZM4570.13 3002.15C4595.93 2819.36 4649.69 2653.77 4731.41 2505.39C4815.28 2357.01 4918.5 2231.21 5041.08 2127.99C5165.8 2022.61 5307.74 1941.97 5466.87 1886.06C5626 1830.15 5794.82 1802.19 5973.3 1802.19C6151.79 1802.19 6312 1830.15 6453.93 1886.06C6595.86 1941.97 6714.14 2022.61 6808.76 2127.99C6903.38 2231.21 6971.12 2357.01 7011.98 2505.39C7052.84 2653.77 7060.36 2819.36 7034.56 3002.15C7008.75 3184.94 6954.99 3350.52 6873.27 3498.91C6791.56 3647.29 6688.33 3774.17 6563.61 3879.54C6438.88 3982.76 6296.95 4062.33 6137.81 4118.24C5980.83 4174.15 5813.09 4202.11 5634.61 4202.11C5456.12 4202.11 5294.83 4174.15 5150.75 4118.24C5008.82 4062.33 4890.54 3982.76 4795.92 3879.54C4701.3 3774.17 4633.56 3647.29 4592.71 3498.91C4551.85 3350.52 4544.32 3184.94 4570.13 3002.15ZM5092.69 3002.15C5077.64 3109.67 5080.86 3208.59 5102.37 3298.91C5123.87 3387.08 5160.43 3464.5 5212.04 3531.16C5265.8 3595.68 5333.54 3646.21 5415.26 3682.77C5496.98 3719.33 5591.6 3737.61 5699.12 3737.61C5806.64 3737.61 5906.64 3719.33 5999.11 3682.77C6091.58 3646.21 6173.3 3595.68 6244.26 3531.16C6315.23 3464.5 6373.29 3387.08 6418.45 3298.91C6465.76 3208.59 6496.94 3109.67 6512 3002.15C6527.05 2896.78 6523.82 2798.93 6502.32 2708.61C6482.96 2618.29 6446.41 2540.87 6392.65 2476.36C6338.88 2409.7 6271.14 2358.08 6189.43 2321.53C6107.71 2284.97 6013.09 2266.69 5905.56 2266.69C5798.04 2266.69 5698.04 2284.97 5605.57 2321.53C5513.1 2358.08 5431.39 2409.7 5360.42 2476.36C5289.46 2540.87 5230.32 2618.29 5183.01 2708.61C5137.85 2798.93 5107.74 2896.78 5092.69 3002.15ZM9472.25 1860.25H9975.46L9656.12 4144.05H9152.91L9472.25 1860.25ZM10239.6 1860.25H11000.9L11317 3350.52H11323.5L12062.2 1860.25H12820.2L12500.9 4144.05H11997.6L12242.8 2392.49H12236.4L11391.2 4144.05H11007.4L10675.1 2392.49H10668.7L10423.5 4144.05H9920.3L10239.6 1860.25ZM12808.4 3002.15C12834.2 2819.36 12888 2653.77 12969.7 2505.39C13053.5 2357.01 13156.8 2231.21 13279.3 2127.99C13404.1 2022.61 13546 1941.97 13705.1 1886.06C13864.3 1830.15 14033.1 1802.19 14211.6 1802.19C14390.1 1802.19 14550.3 1830.15 14692.2 1886.06C14834.1 1941.97 14952.4 2022.61 15047 2127.99C15141.6 2231.21 15209.4 2357.01 15250.2 2505.39C15291.1 2653.77 15298.6 2819.36 15272.8 3002.15C15247 3184.94 15193.3 3350.52 15111.5 3498.91C15029.8 3647.29 14926.6 3774.17 14801.9 3879.54C14677.1 3982.76 14535.2 4062.33 14376.1 4118.24C14219.1 4174.15 14051.4 4202.11 13872.9 4202.11C13694.4 4202.11 13533.1 4174.15 13389 4118.24C13247.1 4062.33 13128.8 3982.76 13034.2 3879.54C12939.6 3774.17 12871.8 3647.29 12831 3498.91C12790.1 3350.52 12782.6 3184.94 12808.4 3002.15ZM13330.9 3002.15C13315.9 3109.67 13319.1 3208.59 13340.6 3298.91C13362.1 3387.08 13398.7 3464.5 13450.3 3531.16C13504.1 3595.68 13571.8 3646.21 13653.5 3682.77C13735.2 3719.33 13829.9 3737.61 13937.4 3737.61C14044.9 3737.61 14144.9 3719.33 14237.4 3682.77C14329.8 3646.21 14411.6 3595.68 14482.5 3531.16C14553.5 3464.5 14611.5 3387.08 14656.7 3298.91C14704 3208.59 14735.2 3109.67 14750.3 3002.15C14765.3 2896.78 14762.1 2798.93 14740.6 2708.61C14721.2 2618.29 14684.7 2540.87 14630.9 2476.36C14577.1 2409.7 14509.4 2358.08 14427.7 2321.53C14346 2284.97 14251.3 2266.69 14143.8 2266.69C14036.3 2266.69 13936.3 2284.97 13843.8 2321.53C13751.4 2358.08 13669.6 2409.7 13598.7 2476.36C13527.7 2540.87 13468.6 2618.29 13421.3 2708.61C13376.1 2798.93 13346 2896.78 13330.9 3002.15Z" fill="white"/>
<path d="M7752.58 2954.06L7149.37 1863.77H7781.61L8155.79 2663.75L8736.41 1863.77H9346.07L8455.78 2944.38L9113.82 4147.57H8797.7H8481.58L8052.57 3228.24L7381.62 4147.57H6784.87L7752.58 2954.06Z" fill="white"/>
<path fill-rule="evenodd" clip-rule="evenodd" d="M10155.7 703.004L9811.74 1399.08L8375.87 2884.47L8518.75 3159.22L6426.69 5072.99L5975.25 5320.88L6319.18 4624.81L7849.33 3006.21L7692.07 2725.21L9704.23 950.897L10155.7 703.004Z" fill="white"/>
<path d="M11439.5 4634.04H11776.8C11823.8 4634.04 11867.4 4638.31 11907.6 4646.86C11948.6 4655.41 11983.3 4670.38 12011.5 4691.75C12039.7 4712.27 12060.6 4740.48 12074.3 4776.39C12088 4811.44 12091 4855.9 12083.3 4909.76C12075.6 4962.77 12060.6 5007.23 12038.4 5043.13C12016.2 5079.04 11988.4 5107.68 11955 5129.06C11922.6 5150.43 11884.9 5165.82 11842.2 5175.23C11800.3 5183.77 11755.4 5188.05 11707.5 5188.05H11561.3L11512.6 5542H11312.5L11439.5 4634.04ZM11585.7 5018.77H11719.1C11737 5018.77 11754.6 5017.06 11771.7 5013.64C11788.8 5010.22 11804.6 5004.66 11819.1 4996.97C11833.6 4988.42 11846 4977.3 11856.3 4963.62C11866.6 4949.09 11873 4931.14 11875.5 4909.76C11879 4886.68 11876 4868.3 11866.6 4854.62C11858 4840.08 11845.6 4828.97 11829.4 4821.27C11814 4813.58 11796 4808.88 11775.5 4807.17C11755.8 4804.6 11736.6 4803.32 11717.8 4803.32H11615.2L11585.7 5018.77ZM12206.2 4634.04H12406.3L12279.3 5542H12079.3L12206.2 4634.04ZM12557.5 4634.04H12757.6L12656.3 5357.33H13026.9L13001.2 5542H12430.5L12557.5 4634.04ZM13087.3 5088.02C13097.5 5015.35 13118.9 4949.52 13151.4 4890.53C13184.8 4831.53 13225.8 4781.52 13274.5 4740.48C13324.1 4698.59 13380.5 4666.53 13443.8 4644.3C13507.1 4622.07 13574.2 4610.96 13645.1 4610.96C13716.1 4610.96 13779.8 4622.07 13836.2 4644.3C13892.7 4666.53 13939.7 4698.59 13977.3 4740.48C14014.9 4781.52 14041.8 4831.53 14058.1 4890.53C14074.3 4949.52 14077.3 5015.35 14067.1 5088.02C14056.8 5160.69 14035.4 5226.52 14002.9 5285.51C13970.5 5344.51 13929.4 5394.95 13879.8 5436.84C13830.2 5477.88 13773.8 5509.51 13710.5 5531.74C13648.1 5553.97 13581.5 5565.08 13510.5 5565.08C13439.5 5565.08 13375.4 5553.97 13318.1 5531.74C13261.7 5509.51 13214.7 5477.88 13177.1 5436.84C13139.4 5394.95 13112.5 5344.51 13096.3 5285.51C13080 5226.52 13077 5160.69 13087.3 5088.02ZM13295 5088.02C13289.1 5130.77 13290.3 5170.1 13298.9 5206C13307.4 5241.06 13322 5271.83 13342.5 5298.34C13363.9 5323.99 13390.8 5344.08 13423.3 5358.61C13455.8 5373.15 13493.4 5380.41 13536.1 5380.41C13578.9 5380.41 13618.6 5373.15 13655.4 5358.61C13692.2 5344.08 13724.7 5323.99 13752.9 5298.34C13781.1 5271.83 13804.2 5241.06 13822.1 5206C13840.9 5170.1 13853.3 5130.77 13859.3 5088.02C13865.3 5046.13 13864 5007.23 13855.5 4971.32C13847.8 4935.41 13833.2 4904.63 13811.9 4878.98C13790.5 4852.48 13763.6 4831.96 13731.1 4817.43C13698.6 4802.89 13661 4795.63 13618.2 4795.63C13575.5 4795.63 13535.7 4802.89 13498.9 4817.43C13462.2 4831.96 13429.7 4852.48 13401.5 4878.98C13373.3 4904.63 13349.8 4935.41 13330.9 4971.32C13313 5007.23 13301 5046.13 13295 5088.02ZM14380 4811.02H14121L14145.3 4634.04H14863.5L14839.1 4811.02H14580.1L14477.5 5542H14277.4L14380 4811.02Z" fill="black" fill-opacity="0.82"/>
<path d="M1563.57 952.893C1552.71 937.678 1538.85 925.995 1522 917.845C1505.16 909.694 1484.78 905.618 1460.87 905.618C1436.96 905.618 1414.14 910.237 1392.41 919.475C1370.67 928.712 1351.11 941.754 1333.72 958.599C1316.87 974.901 1302.47 994.463 1290.52 1017.29C1279.11 1040.11 1271.5 1064.83 1267.7 1091.46C1263.89 1118.63 1264.44 1143.62 1269.33 1166.45C1274.76 1188.73 1283.46 1208.29 1295.41 1225.13C1307.91 1241.43 1323.39 1254.2 1341.87 1263.44C1360.89 1272.68 1381.81 1277.3 1404.63 1277.3C1430.71 1277.3 1454.62 1271.86 1476.36 1261C1498.1 1250.13 1516.84 1234.91 1532.6 1215.35L1627.15 1294.42C1597.81 1328.65 1563.3 1353.92 1523.63 1370.22C1483.97 1386.52 1444.3 1394.67 1404.63 1394.67C1359.53 1394.67 1318.78 1387.61 1282.37 1373.48C1246.5 1359.35 1216.62 1339.25 1192.71 1313.16C1168.8 1286.54 1151.68 1254.48 1141.36 1216.98C1131.03 1179.49 1129.13 1137.65 1135.65 1091.46C1142.17 1045.27 1155.76 1003.43 1176.41 965.935C1197.6 928.441 1223.68 896.652 1254.66 870.569C1286.17 843.943 1322.04 823.566 1362.25 809.438C1402.46 795.31 1445.11 788.245 1490.22 788.245C1506.52 788.245 1523.09 789.876 1539.94 793.136C1557.33 795.853 1574.17 800.472 1590.47 806.993C1606.77 813.513 1621.99 822.207 1636.12 833.075C1650.79 843.943 1663.01 857.256 1672.8 873.015L1563.57 952.893ZM1689.56 1091.46C1696.08 1045.27 1709.67 1003.43 1730.32 965.935C1751.51 928.441 1777.59 896.652 1808.57 870.569C1840.08 843.943 1875.95 823.566 1916.16 809.438C1956.37 795.31 1999.02 788.245 2044.13 788.245C2089.23 788.245 2129.71 795.31 2165.57 809.438C2201.44 823.566 2231.33 843.943 2255.23 870.569C2279.14 896.652 2296.26 928.441 2306.58 965.935C2316.91 1003.43 2318.81 1045.27 2312.29 1091.46C2305.77 1137.65 2292.18 1179.49 2271.54 1216.98C2250.89 1254.48 2224.8 1286.54 2193.29 1313.16C2161.77 1339.25 2125.91 1359.35 2085.7 1373.48C2046.03 1387.61 2003.64 1394.67 1958.54 1394.67C1913.44 1394.67 1872.69 1387.61 1836.28 1373.48C1800.41 1359.35 1770.53 1339.25 1746.62 1313.16C1722.71 1286.54 1705.59 1254.48 1695.27 1216.98C1684.94 1179.49 1683.04 1137.65 1689.56 1091.46ZM1821.61 1091.46C1817.8 1118.63 1818.62 1143.62 1824.05 1166.45C1829.49 1188.73 1838.72 1208.29 1851.77 1225.13C1865.35 1241.43 1882.47 1254.2 1903.12 1263.44C1923.76 1272.68 1947.67 1277.3 1974.84 1277.3C2002.01 1277.3 2027.28 1272.68 2050.65 1263.44C2074.01 1254.2 2094.66 1241.43 2112.59 1225.13C2130.53 1208.29 2145.2 1188.73 2156.61 1166.45C2168.56 1143.62 2176.44 1118.63 2180.25 1091.46C2184.05 1064.83 2183.23 1040.11 2177.8 1017.29C2172.91 994.463 2163.67 974.901 2150.09 958.599C2136.5 941.754 2119.39 928.712 2098.74 919.475C2078.09 910.237 2054.18 905.618 2027.01 905.618C1999.84 905.618 1974.57 910.237 1951.21 919.475C1927.84 928.712 1907.19 941.754 1889.26 958.599C1871.33 974.901 1856.38 994.463 1844.43 1017.29C1833.02 1040.11 1825.41 1064.83 1821.61 1091.46ZM2440.28 802.917H2567.44L2503.05 1262.63H2738.61L2722.31 1380H2359.59L2440.28 802.917ZM2867.48 802.917H2994.63L2913.94 1380H2786.79L2867.48 802.917ZM3106.22 802.917H3279.02L3468.12 1203.94H3469.75L3525.99 802.917H3653.14L3572.45 1380H3406.17L3211.37 969.195H3209.74L3152.68 1380H3025.53L3106.22 802.917ZM4003.9 802.917H4227.23C4256.58 802.917 4284.02 805.906 4309.56 811.883C4335.1 817.317 4356.83 826.826 4374.76 840.411C4392.7 853.453 4406.01 871.385 4414.7 894.207C4423.4 916.486 4425.3 944.471 4420.41 978.161C4414.43 1018.92 4398.95 1053.69 4373.95 1082.49C4348.95 1110.75 4315.53 1128.68 4273.69 1136.29L4386.18 1380H4233.75L4144.91 1149.33H4082.15L4050.36 1380H3923.21L4003.9 802.917ZM4097.63 1041.74H4172.62C4184.03 1041.74 4195.99 1041.47 4208.49 1040.92C4221.53 1039.84 4233.48 1037.39 4244.35 1033.59C4255.22 1029.24 4264.73 1022.72 4272.88 1014.03C4281.03 1005.33 4286.19 993.104 4288.37 977.346C4290.54 962.674 4289.18 950.992 4284.29 942.297C4279.4 933.603 4272.61 927.082 4263.91 922.735C4255.22 917.845 4244.89 914.584 4232.94 912.954C4221.53 911.324 4210.12 910.509 4198.71 910.509H4115.57L4097.63 1041.74ZM4456.63 1091.46C4463.15 1045.27 4476.74 1003.43 4497.38 965.935C4518.58 928.441 4544.66 896.652 4575.63 870.569C4607.15 843.943 4643.01 823.566 4683.22 809.438C4723.44 795.31 4766.09 788.245 4811.19 788.245C4856.3 788.245 4896.78 795.31 4932.64 809.438C4968.51 823.566 4998.39 843.943 5022.3 870.569C5046.21 896.652 5063.33 928.441 5073.65 965.935C5083.98 1003.43 5085.88 1045.27 5079.36 1091.46C5072.84 1137.65 5059.25 1179.49 5038.6 1216.98C5017.95 1254.48 4991.87 1286.54 4960.35 1313.16C4928.84 1339.25 4892.97 1359.35 4852.76 1373.48C4813.1 1387.61 4770.71 1394.67 4725.61 1394.67C4680.51 1394.67 4639.75 1387.61 4603.35 1373.48C4567.48 1359.35 4537.6 1339.25 4513.69 1313.16C4489.78 1286.54 4472.66 1254.48 4462.34 1216.98C4452.01 1179.49 4450.11 1137.65 4456.63 1091.46ZM4588.67 1091.46C4584.87 1118.63 4585.69 1143.62 4591.12 1166.45C4596.55 1188.73 4605.79 1208.29 4618.83 1225.13C4632.42 1241.43 4649.53 1254.2 4670.18 1263.44C4690.83 1272.68 4714.74 1277.3 4741.91 1277.3C4769.08 1277.3 4794.35 1272.68 4817.71 1263.44C4841.08 1254.2 4861.73 1241.43 4879.66 1225.13C4897.59 1208.29 4912.26 1188.73 4923.68 1166.45C4935.63 1143.62 4943.51 1118.63 4947.31 1091.46C4951.12 1064.83 4950.3 1040.11 4944.87 1017.29C4939.98 994.463 4930.74 974.901 4917.16 958.599C4903.57 941.754 4886.45 928.712 4865.8 919.475C4845.16 910.237 4821.25 905.618 4794.08 905.618C4766.91 905.618 4741.64 910.237 4718.27 919.475C4694.91 928.712 4674.26 941.754 4656.33 958.599C4638.39 974.901 4623.45 994.463 4611.5 1017.29C4600.09 1040.11 4592.48 1064.83 4588.67 1091.46ZM5639.35 1157.48C5634.46 1191.71 5624.68 1223.23 5610.01 1252.03C5595.88 1280.83 5577.13 1305.83 5553.77 1327.02C5530.4 1348.21 5502.69 1364.79 5470.63 1376.74C5438.57 1388.69 5402.7 1394.67 5363.03 1394.67C5322.82 1394.67 5288.32 1388.69 5259.52 1376.74C5230.72 1364.79 5207.62 1348.21 5190.24 1327.02C5172.85 1305.83 5160.89 1280.83 5154.37 1252.03C5148.39 1223.23 5147.85 1191.71 5152.74 1157.48L5202.46 802.917H5329.62L5280.71 1152.59C5277.99 1170.52 5278.27 1187.1 5281.53 1202.31C5285.33 1217.53 5291.58 1230.84 5300.27 1242.25C5309.51 1253.12 5320.65 1261.81 5333.69 1268.33C5347.28 1274.31 5362.49 1277.3 5379.34 1277.3C5396.18 1277.3 5411.94 1274.31 5426.61 1268.33C5441.83 1261.81 5455.41 1253.12 5467.37 1242.25C5479.32 1230.84 5489.1 1217.53 5496.71 1202.31C5504.86 1187.1 5510.29 1170.52 5513.01 1152.59L5561.92 802.917H5689.07L5639.35 1157.48ZM5802.54 802.917H5975.34L6164.44 1203.94H6166.07L6222.31 802.917H6349.46L6268.77 1380H6102.49L5907.69 969.195H5906.06L5849 1380H5721.85L5802.54 802.917ZM6559.29 915.399H6394.64L6410.13 802.917H6866.58L6851.09 915.399H6686.45L6621.24 1380H6494.08L6559.29 915.399ZM6927.08 802.917H7150.41C7179.75 802.917 7207.19 805.906 7232.73 811.883C7258.27 817.317 7280.01 826.826 7297.94 840.411C7315.87 853.453 7329.19 871.385 7337.88 894.207C7346.57 916.486 7348.48 944.471 7343.59 978.161C7337.61 1018.92 7322.12 1053.69 7297.13 1082.49C7272.13 1110.75 7238.71 1128.68 7196.87 1136.29L7309.35 1380H7156.93L7068.09 1149.33H7005.32L6973.54 1380H6846.38L6927.08 802.917ZM7020.81 1041.74H7095.8C7107.21 1041.74 7119.16 1041.47 7131.66 1040.92C7144.7 1039.84 7156.66 1037.39 7167.53 1033.59C7178.39 1029.24 7187.9 1022.72 7196.05 1014.03C7204.21 1005.33 7209.37 993.104 7211.54 977.346C7213.71 962.674 7212.36 950.992 7207.47 942.297C7202.58 933.603 7195.78 927.082 7187.09 922.735C7178.39 917.845 7168.07 914.584 7156.12 912.954C7144.7 911.324 7133.29 910.509 7121.88 910.509H7038.74L7020.81 1041.74ZM7456.42 802.917H7848.48L7832.18 920.29H7567.28L7551.79 1027.88H7802.02L7785.72 1145.25H7535.49L7519.19 1262.63H7798.76L7782.46 1380H7375.73L7456.42 802.917ZM7965.76 802.917H8357.82L8341.52 920.29H8076.61L8061.12 1027.88H8311.36L8295.06 1145.25H8044.82L8028.52 1262.63H8308.1L8291.8 1380H7885.07L7965.76 802.917Z" fill="black" fill-opacity="0.84"/>
</svg>
