<svg width="8058" height="1199" viewBox="0 0 8058 1199" fill="none" xmlns="http://www.w3.org/2000/svg">
<path d="M2604.11 1174.26V0.285156H3230.92V221.921H2856.91V440.094H3289.79V661.73H2849.98V1174.26L2604.11 1174.26Z" fill="black"/>
<path d="M3.35004 204.606H2327.06L2330.53 478.187H276.932C174.194 474.725 -24.3543 415.16 3.35004 204.606Z" fill="black"/>
<path d="M446.622 540.522H2330.53V817.567H661.331C585.144 811.795 435.54 748.306 446.622 540.522Z" fill="black"/>
<path d="M2330.53 883.365H882.967C869.115 1093.92 983.396 1153.48 1042.27 1156.95H2330.53V883.365Z" fill="black"/>
<path d="M3564.85 2.10417V1175.51H3808.89V2.10417H3564.85Z" fill="black"/>
<path d="M4021.32 3.36861H4303.29L4658.59 688.697L4992.41 2.10417H5244.03L4649.74 1198.27L4021.32 3.36861Z" fill="black"/>
<path d="M6082.36 3.36861H5458.99L5457.72 1176.77H6186.04V955.494H5703.02V659.614H6143.05V442.13H5703.02V223.382H6082.36V3.36861Z" fill="black"/>
<path d="M7098.51 1.88672H6466.43L6463.85 206.574H6754.79L6542.38 614.661H6730.33C6817.87 619.811 6866.36 691.473 6879.66 726.66C6913.65 831.707 6856.92 909.462 6824.31 935.209C6698.66 1011.42 6611.47 935.209 6583.58 887.578L6395.62 1024.04C6486.25 1162.04 6646.23 1195.68 6714.88 1195.25C7045.47 1182.89 7128.98 909.462 7129.41 774.292C7116.02 545.66 6959.05 441.299 6882.24 417.698L7098.51 1.88672Z" fill="black"/>
<path d="M7394.5 1.88672H8026.58L7810.31 417.698C7887.12 441.299 8044.09 545.66 8057.48 774.292C8057.05 909.462 7973.55 1182.89 7642.96 1195.25C7574.3 1195.68 7414.32 1162.04 7323.7 1024.04L7511.65 887.578C7539.54 935.209 7626.74 1011.42 7752.38 935.209C7784.99 909.462 7841.72 831.707 7807.74 726.66C7794.43 691.473 7745.94 619.811 7658.4 614.661H7470.45L7682.86 206.574H7391.92L7394.5 1.88672Z" fill="black"/>
</svg>
