<svg width="5742" height="5738" viewBox="0 0 5742 5738" fill="none" xmlns="http://www.w3.org/2000/svg">
<path d="M4081.44 73.3774L3134.73 1057.96C2968.11 1292.74 3074.78 1496.6 3148.93 1569.18L3361.94 1796.39C3513.42 2012.24 3409.28 2223.99 3338.28 2302.88L3153.67 2496.96C2964.33 2739.31 3084.24 2960.84 3167.87 3041.31L4053.04 3964.36C4280.25 4161.27 4472.75 4059.03 4540.6 3983.29L4758.34 3770.28C4962.83 3471.12 4789.9 3232.23 4677.87 3150.19L3849.5 2293.41C3690.45 2069.99 3780.07 1856.35 3844.77 1777.46L4815.14 764.476C4906.03 575.134 4837.23 398.415 4791.48 333.723L4512.2 59.1768C4341.79 -54.4285 4154.03 21.3083 4081.44 73.3774Z" fill="black"/>
<path d="M1663.65 123.377L2610.36 1107.96C2776.98 1342.74 2670.31 1546.6 2596.16 1619.18L2383.15 1846.39C2231.67 2062.24 2335.81 2273.99 2406.81 2352.88L2591.42 2546.96C2780.76 2789.31 2660.85 3010.84 2577.22 3091.31L1692.05 4014.36C1464.84 4211.27 1272.34 4109.03 1204.49 4033.29L986.748 3820.28C782.259 3521.12 955.191 3282.23 1067.22 3200.19L1895.59 2343.41C2054.64 2119.99 1965.02 1906.35 1900.32 1827.46L929.945 814.476C839.061 625.134 907.855 448.415 953.613 383.723L1232.89 109.177C1403.3 -4.42847 1591.06 71.3083 1663.65 123.377Z" fill="black"/>
<path d="M3678.1 5729.99C3705.81 5729.99 3732.34 5726.96 3752.42 5707.85C3771.53 5687.77 3787.18 5654.85 3787.18 5627.14C3787.18 5599.42 3774.01 5572.7 3754.9 5552.63C3734.83 5533.52 3705.81 5529.28 3678.1 5529.28H3128.28C3107.3 5529.28 3090.28 5512.26 3090.28 5491.28V5328.56H3620.75C3648.47 5328.56 3671.88 5319 3691 5299.89C3711.07 5279.81 3721.11 5255.92 3721.11 5228.2C3721.11 5200.48 3711.07 5176.59 3691 5156.52C3671.88 5137.4 3648.47 5127.84 3620.75 5127.84H3090.28V4965.13C3090.28 4944.14 3107.3 4927.13 3128.28 4927.13H3678.1C3705.81 4927.13 3729.71 4917.57 3749.78 4898.45C3768.9 4878.38 3778.45 4854.49 3778.45 4826.77C3778.45 4799.05 3768.9 4775.16 3749.78 4755.08C3729.71 4735.97 3705.81 4726.41 3678.1 4726.41H2989.92C2962.21 4726.41 2938.31 4735.97 2918.24 4755.08C2899.12 4775.16 2889.57 4799.05 2889.57 4826.77V5629.63C2889.57 5657.35 2899.12 5681.25 2918.24 5701.32C2938.31 5720.44 2962.21 5729.99 2989.92 5729.99H3678.1Z" fill="black"/>
<path d="M4655.65 5729.99C4683.36 5729.99 4709.89 5726.96 4729.97 5707.85C4749.08 5687.77 4764.73 5654.85 4764.73 5627.14C4764.73 5599.42 4751.57 5572.7 4732.45 5552.63C4712.38 5533.52 4683.36 5529.28 4655.65 5529.28H4105.83C4084.85 5529.28 4067.83 5512.26 4067.83 5491.28V5328.56H4598.3C4626.02 5328.56 4649.43 5319 4668.55 5299.89C4688.62 5279.81 4698.66 5255.92 4698.66 5228.2C4698.66 5200.48 4688.62 5176.59 4668.55 5156.52C4649.43 5137.4 4626.02 5127.84 4598.3 5127.84H4067.83V4965.13C4067.83 4944.14 4084.85 4927.13 4105.83 4927.13H4655.65C4683.36 4927.13 4707.26 4917.57 4727.33 4898.45C4746.45 4878.38 4756.01 4854.49 4756.01 4826.77C4756.01 4799.05 4746.45 4775.16 4727.33 4755.08C4707.26 4735.97 4683.36 4726.41 4655.65 4726.41H3967.48C3939.76 4726.41 3915.86 4735.97 3895.79 4755.08C3876.68 4775.16 3867.12 4799.05 3867.12 4826.77V5629.63C3867.12 5657.35 3876.68 5681.25 3895.79 5701.32C3915.86 5720.44 3939.76 5729.99 3967.48 5729.99H4655.65Z" fill="black"/>
<path d="M2744.01 4756C2722.98 4737.84 2694.61 4716.73 2666.89 4718.65C2639.17 4720.56 2622.7 4725.13 2604.54 4746.15L2360.81 5058.52L2099.26 4738.67C2083.51 4728.17 2072.32 4725.65 2044.6 4723.74C2017.83 4721.83 1995.14 4737.8 1973.16 4755.96C1952.13 4774.12 1936.9 4789.87 1934.99 4817.59C1933.08 4845.31 1932.89 4854.01 1946.55 4879.22L2228.24 5220.07L1926.58 5583.1C1908.42 5604.12 1907.86 5620.16 1909.78 5647.88C1911.69 5675.6 1919.91 5686.45 1940.94 5704.61C1960.06 5720.86 1994.18 5737.88 2019.03 5737.88C2049.62 5737.88 2078.1 5720.55 2098.18 5697.61L2360.14 5374.91L2625.2 5700.76C2645.28 5723.7 2677.26 5736.48 2707.85 5736.48C2732.7 5736.48 2751.06 5713.74 2770.17 5697.49C2791.2 5679.33 2802.67 5656.39 2804.58 5628.67C2806.49 5600.96 2796.75 5582.06 2778.59 5561.03L2492.04 5220.07L2771.72 4877.1C2789.88 4856.07 2789.64 4847.97 2787.73 4820.25C2785.82 4792.54 2765.03 4774.16 2744.01 4756Z" fill="black"/>
<path d="M1402.44 4942.42C1485.59 4942.42 1539.85 4953.62 1598.16 5012.88C1657.41 5071.19 1682.31 5139.14 1682.31 5222.3C1682.31 5305.45 1671.11 5373.41 1611.86 5431.71C1553.55 5490.97 1491.39 5521.95 1408.24 5521.95C1325.08 5521.95 1258.37 5488.87 1200.07 5429.61C1140.81 5371.31 1127.98 5307.84 1127.98 5224.68C1127.98 5141.53 1143.55 5084.89 1202.81 5026.58C1261.11 4967.32 1319.29 4942.42 1402.44 4942.42ZM1406.62 5732.56C1545.21 5732.56 1664.06 5678.21 1761.55 5579.76C1860 5482.27 1892.62 5364.89 1892.62 5226.3C1892.62 5087.71 1852.56 4969.82 1754.11 4872.33C1656.62 4773.88 1546.02 4723.85 1407.43 4723.85C1268.84 4723.85 1154.19 4775.5 1056.7 4873.95C958.249 4971.44 918.994 5086.9 918.994 5225.49C918.994 5364.08 954.863 5482.27 1053.31 5579.76C1150.8 5678.21 1268.03 5732.56 1406.62 5732.56Z" fill="black"/>
<path d="M762.663 4919.99C790.381 4919.99 817.922 4912.38 837.994 4893.26C857.109 4873.19 863.104 4848.08 863.104 4820.36C863.104 4792.64 858.723 4766.72 839.607 4746.65C819.536 4727.54 796.855 4719.11 769.137 4719.11H117.082C89.3637 4719.11 56.8202 4741.31 37.7043 4760.42C17.6327 4780.49 0.441406 4799.93 0.441406 4827.65L2.06276 5653.86C2.06276 5681.58 8.72131 5693.06 28.793 5712.18C47.9088 5732.25 78.8356 5737.29 106.554 5737.29C134.272 5737.29 163.433 5733.87 183.504 5713.8C202.62 5694.68 202.134 5666.19 202.134 5638.47L201.324 5365.5L726.209 5363.88C753.927 5363.88 764.462 5355.45 784.533 5336.34C803.649 5316.26 803.163 5293.58 803.163 5265.87C803.163 5238.15 793.929 5213.04 774.813 5192.97C754.741 5173.85 737.727 5167.04 710.008 5167.04L207.804 5168.66L210.622 4951.04C210.856 4932.95 225.619 4918.42 243.716 4918.47L762.663 4919.99Z" fill="black"/>
<path d="M5050.63 4945.53C5050.78 4931.21 5062.47 4919.71 5076.79 4919.8L5443.03 4922.08C5486.04 4922.08 5522.76 4947.05 5514.97 5029.85C5507.18 5112.64 5458.18 5131.36 5415.17 5131.36H5048.67L5050.63 4945.53ZM4852.39 5630.7C4852.39 5658.42 4853.99 5692.09 4873.1 5711.21C4893.17 5731.28 4923.32 5738 4951.04 5738C4978.76 5738 5001.6 5734.93 5021.67 5714.86C5040.79 5695.75 5049.72 5675.87 5049.72 5648.15L5049.16 5336.95L5318.72 5336.38L5557.34 5702.18C5577.41 5724.16 5609.87 5735.95 5639.5 5735.95C5665.31 5735.95 5689.19 5722.46 5708.3 5705.26C5728.37 5687.1 5739.36 5664.16 5741.28 5636.44C5742.23 5608.72 5733.63 5584.35 5715.47 5563.32L5563.5 5299.98C5617.02 5268.44 5655.62 5223.33 5688.11 5169.8C5720.61 5114.36 5718.01 5021.24 5718.01 5021.24C5715.05 4943.32 5697.24 4870.96 5645.74 4816.48C5575.01 4746.71 5539.43 4720.12 5440.98 4720.12L4967.79 4718.4C4940.08 4718.4 4901.13 4737.04 4881.06 4756.15C4861.95 4776.22 4852.39 4800.12 4852.39 4827.84V5630.7Z" fill="black"/>
</svg>
