<svg width="8427" height="2331" viewBox="0 0 8427 2331" fill="none" xmlns="http://www.w3.org/2000/svg">
<path d="M1804.67 41.4303L1270.14 597.342C1176.06 729.906 1236.29 845.008 1278.16 885.989L1398.43 1014.28C1483.95 1136.15 1425.16 1255.71 1385.07 1300.25L1280.83 1409.83C1173.93 1546.67 1241.63 1671.75 1288.85 1717.18L1788.64 2238.35C1916.92 2349.53 2025.61 2291.8 2063.92 2249.04L2186.86 2128.77C2302.32 1959.86 2204.68 1824.98 2141.43 1778.65L1673.71 1294.9C1583.91 1168.76 1634.51 1048.13 1671.04 1003.59L2218.93 431.638C2270.25 324.732 2231.41 224.952 2205.57 188.426L2047.88 33.4123C1951.67 -30.7313 1845.65 12.0311 1804.67 41.4303Z" fill="black"/>
<path d="M439.537 69.6607L974.068 625.573C1068.15 758.136 1007.92 873.238 966.05 914.219L845.78 1042.51C760.255 1164.38 819.054 1283.94 859.143 1328.48L963.377 1438.06C1070.28 1574.9 1002.58 1699.98 955.359 1745.41L455.573 2266.58C327.286 2377.76 218.598 2320.03 180.29 2277.27L57.3477 2157C-58.111 1988.09 39.53 1853.21 102.783 1806.89L570.497 1323.13C660.298 1196.99 609.696 1076.36 573.17 1031.82L25.2758 459.868C-26.0391 352.962 12.8035 253.183 38.6391 216.657L196.326 61.6428C292.541 -2.50088 398.556 40.2616 439.537 69.6607Z" fill="black"/>
<path d="M6363.75 1667.26C6391.47 1667.26 6418 1664.23 6438.07 1645.11C6457.18 1625.04 6472.84 1592.12 6472.84 1564.4C6472.84 1536.68 6459.67 1509.97 6440.55 1489.9C6420.48 1470.78 6391.47 1466.54 6363.75 1466.54H5813.94C5792.95 1466.54 5775.94 1449.53 5775.94 1428.54V1265.83H6306.4C6334.12 1265.83 6357.54 1256.27 6376.65 1237.15C6396.72 1217.08 6406.76 1193.19 6406.76 1165.47C6406.76 1137.75 6396.72 1113.85 6376.65 1093.78C6357.54 1074.67 6334.12 1065.11 6306.4 1065.11H5775.94V902.392C5775.94 881.405 5792.95 864.392 5813.94 864.392H6363.75C6391.47 864.392 6415.36 854.834 6435.43 835.718C6454.55 815.647 6464.11 791.752 6464.11 764.034C6464.11 736.316 6454.55 712.421 6435.43 692.35C6415.36 673.234 6391.47 663.676 6363.75 663.676H5675.58C5647.86 663.676 5623.96 673.234 5603.89 692.35C5584.78 712.421 5575.22 736.316 5575.22 764.034V1566.9C5575.22 1594.62 5584.78 1618.51 5603.89 1638.58C5623.96 1657.7 5647.86 1667.26 5675.58 1667.26H6363.75Z" fill="black"/>
<path d="M7341.3 1667.26C7369.02 1667.26 7395.55 1664.23 7415.62 1645.11C7434.73 1625.04 7450.39 1592.12 7450.39 1564.4C7450.39 1536.68 7437.22 1509.97 7418.1 1489.9C7398.03 1470.78 7369.02 1466.54 7341.3 1466.54H6791.49C6770.5 1466.54 6753.49 1449.53 6753.49 1428.54V1265.83H7283.95C7311.67 1265.83 7335.09 1256.27 7354.2 1237.15C7374.27 1217.08 7384.31 1193.19 7384.31 1165.47C7384.31 1137.75 7374.27 1113.85 7354.2 1093.78C7335.09 1074.67 7311.67 1065.11 7283.95 1065.11H6753.49V902.392C6753.49 881.405 6770.5 864.392 6791.49 864.392H7341.3C7369.02 864.392 7392.91 854.834 7412.98 835.718C7432.1 815.647 7441.66 791.752 7441.66 764.034C7441.66 736.316 7432.1 712.421 7412.98 692.35C7392.91 673.234 7369.02 663.676 7341.3 663.676H6653.13C6625.41 663.676 6601.52 673.234 6581.44 692.35C6562.33 712.421 6552.77 736.316 6552.77 764.034V1566.9C6552.77 1594.62 6562.33 1618.51 6581.44 1638.58C6601.52 1657.7 6625.41 1667.26 6653.13 1667.26H7341.3Z" fill="black"/>
<path d="M5429.66 693.265C5408.63 675.105 5380.26 654 5352.54 655.912C5324.82 657.824 5308.36 662.391 5290.2 683.419L5046.47 995.784L4784.92 675.939C4769.16 665.434 4757.97 662.919 4730.25 661.008C4703.49 659.096 4680.79 675.064 4658.81 693.225C4637.78 711.385 4622.55 727.139 4620.64 754.857C4618.73 782.575 4618.54 791.276 4632.2 816.49L4913.89 1157.34L4612.24 1520.36C4594.08 1541.39 4593.52 1557.43 4595.43 1585.15C4597.34 1612.86 4605.57 1623.72 4626.59 1641.88C4645.71 1658.12 4679.84 1675.14 4704.69 1675.14C4735.27 1675.14 4763.76 1657.81 4783.83 1634.87L5045.79 1312.18L5310.86 1638.02C5330.93 1660.96 5362.91 1673.74 5393.5 1673.74C5418.35 1673.74 5436.71 1651 5455.83 1634.76C5476.85 1616.6 5488.32 1593.66 5490.23 1565.94C5492.15 1538.22 5482.4 1519.33 5464.24 1498.3L5177.69 1157.34L5457.37 814.364C5475.53 793.336 5475.29 785.238 5473.38 757.52C5471.47 729.802 5450.69 711.425 5429.66 693.265Z" fill="black"/>
<path d="M4088.09 879.691C4171.25 879.691 4225.5 890.89 4283.81 950.149C4343.07 1008.45 4367.97 1076.41 4367.97 1159.56C4367.97 1242.72 4356.77 1310.68 4297.51 1368.98C4239.2 1428.24 4177.04 1459.22 4093.89 1459.22C4010.74 1459.22 3944.02 1426.14 3885.72 1366.88C3826.46 1308.58 3813.63 1245.1 3813.63 1161.95C3813.63 1078.79 3829.2 1022.15 3888.46 963.849C3946.76 904.59 4004.94 879.691 4088.09 879.691ZM4092.27 1669.82C4230.86 1669.82 4349.71 1615.47 4447.21 1517.03C4545.65 1419.54 4578.27 1302.16 4578.27 1163.57C4578.27 1024.98 4538.21 907.086 4439.76 809.595C4342.27 711.148 4231.67 661.113 4093.08 661.113C3954.49 661.113 3839.84 712.768 3742.35 811.215C3643.9 908.706 3604.65 1024.17 3604.65 1162.76C3604.65 1301.35 3640.52 1419.54 3738.96 1517.03C3836.45 1615.47 3953.68 1669.82 4092.27 1669.82Z" fill="black"/>
<path d="M3448.32 857.259C3476.03 857.259 3503.57 849.644 3523.65 830.528C3542.76 810.457 3548.76 785.346 3548.76 757.628C3548.76 729.91 3544.38 703.989 3525.26 683.917C3505.19 664.801 3482.51 656.377 3454.79 656.377H2802.73C2775.02 656.377 2742.47 678.571 2723.36 697.687C2703.29 717.759 2686.09 737.2 2686.09 764.918L2687.72 1591.12C2687.72 1618.84 2694.37 1630.33 2714.45 1649.44C2733.56 1669.52 2764.49 1674.56 2792.21 1674.56C2819.92 1674.56 2849.08 1671.14 2869.16 1651.07C2888.27 1631.95 2887.79 1603.45 2887.79 1575.73L2886.98 1302.76L3411.86 1301.14C3439.58 1301.14 3450.11 1292.72 3470.19 1273.6C3489.3 1253.53 3488.82 1230.85 3488.82 1203.13C3488.82 1175.41 3479.58 1150.3 3460.47 1130.23C3440.39 1111.11 3423.38 1104.31 3395.66 1104.31L2893.46 1105.93L2896.27 888.307C2896.51 870.212 2911.27 855.681 2929.37 855.734L3448.32 857.259Z" fill="black"/>
<path d="M7736.28 882.794C7736.43 868.479 7748.12 856.98 7762.44 857.069L8128.68 859.343C8171.69 859.343 8208.41 884.312 8200.62 967.111C8192.83 1049.91 8143.83 1068.63 8100.82 1068.63H7734.32L7736.28 882.794ZM7538.04 1567.97C7538.04 1595.69 7539.64 1629.36 7558.75 1648.47C7578.83 1668.55 7608.97 1675.27 7636.69 1675.27C7664.41 1675.27 7687.25 1672.2 7707.32 1652.13C7726.44 1633.01 7735.37 1613.14 7735.37 1585.42L7734.81 1274.21L8004.37 1273.65L8242.99 1639.45C8263.06 1661.43 8295.52 1673.21 8325.15 1673.21C8350.96 1673.21 8374.84 1659.73 8393.95 1642.52C8414.03 1624.36 8425.02 1601.42 8426.93 1573.7C8427.88 1545.99 8419.28 1521.61 8401.12 1500.59L8249.15 1237.25C8302.68 1205.7 8341.27 1160.59 8373.77 1107.07C8406.26 1051.63 8403.66 958.507 8403.66 958.507C8400.71 880.59 8382.89 808.225 8331.39 753.747C8260.66 683.974 8225.08 657.389 8126.63 657.389L7653.45 655.668C7625.73 655.668 7586.79 674.303 7566.71 693.419C7547.6 713.49 7538.04 737.385 7538.04 765.103V1567.97Z" fill="black"/>
</svg>
