<svg width="2854" height="2854" viewBox="0 0 2854 2854" fill="none" xmlns="http://www.w3.org/2000/svg">
<g clip-path="url(#clip0_102_203)">
<path d="M1061.75 1694.53H1016.47L1121.73 1398.39H1119.06L902.452 1694.53H856.097L846.798 1398.39H844.146L738.886 1694.53H692.531L816.96 1344.44H894.226L901.503 1635.73L902.916 1636.27L1111.59 1344.44H1186.19L1061.75 1694.53Z" fill="black"/>
<path d="M1503.19 1344.44L1410.57 1604.99C1388.07 1668.28 1331.72 1699.92 1241.5 1699.92C1223.39 1699.92 1207.64 1698.76 1194.26 1696.42C1180.89 1694.08 1168.39 1689.77 1156.78 1683.47C1145.16 1677.19 1137.81 1667.39 1134.72 1654.07C1131.63 1640.77 1133.55 1624.41 1140.45 1604.99L1233.06 1344.44H1282.61L1190.19 1604.45C1182.01 1627.46 1184.03 1643.29 1196.23 1651.92C1208.43 1660.55 1228.04 1664.87 1255.03 1664.87C1282.03 1664.87 1304.43 1660.55 1322.24 1651.92C1340.04 1643.29 1353.03 1627.46 1361.22 1604.45L1453.63 1344.44H1503.19Z" fill="black"/>
<path d="M1647.82 1694.53H1426.16L1550.61 1344.44H1602.29L1490.89 1657.85H1660.85L1647.82 1694.53Z" fill="black"/>
<path d="M1961.46 1381.12H1844.77L1733.38 1694.54H1681.16L1792.57 1381.12H1675.34L1688.38 1344.44H1974.49L1961.46 1381.12Z" fill="black"/>
<path d="M1942.54 1694.53H1890.84L2015.29 1344.44H2066.98L1942.54 1694.53Z" fill="black"/>
<path d="M2333.42 1676.42C2312.7 1683.11 2287.34 1688.67 2257.34 1693.13C2227.33 1697.58 2200.41 1699.81 2176.57 1699.81C2156.77 1699.81 2139.19 1698.98 2123.83 1697.31C2108.47 1695.63 2093.64 1692.49 2079.34 1687.83C2065.04 1683.2 2053.79 1677.18 2045.62 1669.74C2037.43 1662.31 2032.29 1652.28 2030.17 1639.66C2028.06 1627.05 2030.04 1612.18 2036.11 1595.1L2089.56 1444.72C2096.3 1425.79 2106.08 1409.08 2118.93 1394.6C2131.78 1380.12 2145.52 1368.79 2160.15 1360.62C2174.8 1352.46 2191.33 1345.68 2209.75 1340.29C2228.16 1334.91 2245.28 1331.38 2261.09 1329.72C2276.9 1328.05 2293.24 1327.21 2310.11 1327.21C2360.72 1327.21 2407.75 1331.1 2451.18 1338.9L2427.82 1404.63C2387.87 1394.23 2341.31 1389.03 2288.14 1389.03C2226.16 1389.03 2188.71 1407.22 2175.77 1443.61L2124.1 1588.97C2117.5 1607.54 2121.66 1620.36 2136.57 1627.4C2151.48 1634.47 2175.08 1637.99 2207.35 1637.99C2225.32 1637.99 2245.57 1635.2 2268.08 1629.64L2297.98 1545.53H2239.67L2259.86 1488.72H2400.14L2333.42 1676.42Z" fill="black"/>
<path d="M2662.27 1481.48L2682.86 1423.56C2686.95 1412.05 2685.29 1404.34 2677.87 1400.45C2670.45 1396.55 2654.83 1394.6 2630.99 1394.6H2577.63L2534.08 1517.12H2588.54C2610.91 1517.12 2627.63 1514.45 2638.72 1509.05C2649.79 1503.67 2657.65 1494.49 2662.27 1481.48ZM2768.69 1415.76L2744.35 1484.27C2731.67 1519.91 2711.29 1544.24 2683.21 1557.23C2655.1 1570.23 2614.12 1576.72 2560.2 1576.72H2512.9L2471.12 1694.25H2385.3L2513.79 1332.78H2656.81C2707.43 1332.78 2741.62 1338.44 2759.42 1349.76C2777.21 1361.09 2780.3 1383.09 2768.69 1415.76Z" fill="black"/>
<path d="M2823.26 1367.07H2826.17C2829.57 1367.07 2832.32 1365.94 2832.32 1363.19C2832.32 1360.77 2830.54 1359.15 2826.66 1359.15C2825.04 1359.15 2823.91 1359.32 2823.26 1359.48V1367.07ZM2823.1 1382.11H2816.95V1355.59C2819.38 1355.11 2822.78 1354.79 2827.14 1354.79C2832.16 1354.79 2834.42 1355.59 2836.36 1356.72C2837.82 1357.86 2838.95 1359.96 2838.95 1362.54C2838.95 1365.46 2836.68 1367.72 2833.45 1368.7V1369.01C2836.04 1369.98 2837.49 1371.92 2838.3 1375.49C2839.1 1379.53 2839.59 1381.14 2840.24 1382.11H2833.61C2832.8 1381.14 2832.32 1378.72 2831.51 1375.65C2831.02 1372.74 2829.41 1371.44 2826.01 1371.44H2823.1V1382.11ZM2806.76 1368.21C2806.76 1380.01 2815.5 1389.4 2827.47 1389.4C2839.1 1389.4 2847.68 1380.01 2847.68 1368.37C2847.68 1356.57 2839.1 1347.02 2827.3 1347.02C2815.5 1347.02 2806.76 1356.57 2806.76 1368.21ZM2854.47 1368.21C2854.47 1383.25 2842.67 1395.05 2827.3 1395.05C2812.1 1395.05 2799.97 1383.25 2799.97 1368.21C2799.97 1353.49 2812.1 1341.69 2827.3 1341.69C2842.67 1341.69 2854.47 1353.49 2854.47 1368.21Z" fill="black"/>
<path d="M619.095 1160.07C617.019 1157.11 613.623 1155.34 610 1155.34H436.516C435.039 1155.34 433.659 1155.71 432.349 1156.25C434.268 1157.05 435.982 1158.32 437.206 1160.07C439.281 1163.04 439.782 1166.83 438.543 1170.24L397.535 1282.91H563.565C567.187 1282.91 570.583 1284.68 572.659 1287.65C574.734 1290.62 575.241 1294.41 574.001 1297.81L620.437 1170.24C621.677 1166.83 621.17 1163.04 619.095 1160.07Z" fill="black"/>
<path d="M656.619 1550.16C654.544 1547.19 651.148 1545.43 647.525 1545.43H483.873L527.565 1425.39C528.805 1421.99 528.303 1418.19 526.222 1415.22C524.147 1412.26 520.751 1410.49 517.128 1410.49H351.099L392.112 1297.81C393.352 1294.41 392.85 1290.62 390.769 1287.65C388.694 1284.68 385.298 1282.91 381.675 1282.91H228.902L269.914 1170.24C271.154 1166.83 270.653 1163.03 268.572 1160.07C266.497 1157.1 263.1 1155.34 259.478 1155.34H56.8723C52.2039 1155.34 48.0315 1158.25 46.4358 1162.64L0 1290.22C1.59566 1285.83 5.76808 1282.91 10.4311 1282.91H213.042C216.665 1282.91 220.061 1284.68 222.136 1287.65C224.212 1290.62 224.718 1294.41 223.479 1297.81L182.466 1410.49H335.245C338.867 1410.49 342.263 1412.26 344.339 1415.22C346.414 1418.19 346.916 1421.99 345.676 1425.39L301.989 1545.43H467.011C470.633 1545.43 474.029 1547.19 476.105 1550.16C478.186 1553.12 478.687 1556.92 477.447 1560.33L431.011 1687.9C429.868 1691.04 427.383 1693.37 424.37 1694.47C425.561 1694.91 426.806 1695.21 428.111 1695.21H601.089C605.758 1695.21 609.925 1692.29 611.526 1687.9L657.961 1560.33C659.201 1556.92 658.695 1553.12 656.619 1550.16Z" fill="black"/>
<path d="M572.659 1287.65C574.734 1290.61 575.241 1294.41 574.001 1297.81L532.988 1410.49H711.966L755.739 1290.22C757.34 1285.83 761.507 1282.91 766.176 1282.91H563.565C567.187 1282.91 570.583 1284.68 572.659 1287.65Z" fill="black"/>
<path d="M934.804 1282.91H950.664L991.671 1170.24C992.911 1166.83 992.409 1163.04 990.329 1160.07C988.253 1157.11 984.857 1155.34 981.234 1155.34H812.601C807.938 1155.34 803.766 1158.25 802.17 1162.64L755.734 1290.22C757.335 1285.84 761.502 1282.91 766.171 1282.91H927.3H934.804Z" fill="black"/>
<path d="M619.095 1160.07C617.019 1157.11 613.623 1155.34 610 1155.34H436.516C435.039 1155.34 433.659 1155.71 432.349 1156.25C434.268 1157.05 435.982 1158.32 437.206 1160.07C439.281 1163.04 439.782 1166.83 438.543 1170.24L397.535 1282.91H563.565C567.187 1282.91 570.583 1284.68 572.659 1287.65C574.734 1290.62 575.241 1294.41 574.001 1297.81L620.437 1170.24C621.677 1166.83 621.17 1163.04 619.095 1160.07Z" fill="black"/>
<path d="M656.619 1550.16C654.544 1547.19 651.148 1545.43 647.525 1545.43H483.873L527.565 1425.39C528.805 1421.99 528.303 1418.19 526.222 1415.22C524.147 1412.26 520.751 1410.49 517.128 1410.49H351.099L392.112 1297.81C393.352 1294.41 392.85 1290.62 390.769 1287.65C388.694 1284.68 385.298 1282.91 381.675 1282.91H228.902L269.914 1170.24C271.154 1166.83 270.653 1163.03 268.572 1160.07C266.497 1157.1 263.1 1155.34 259.478 1155.34H56.8723C52.2039 1155.34 48.0315 1158.25 46.4358 1162.64L0 1290.22C1.59566 1285.83 5.76808 1282.91 10.4311 1282.91H213.042C216.665 1282.91 220.061 1284.68 222.136 1287.65C224.212 1290.62 224.718 1294.41 223.479 1297.81L182.466 1410.49H335.245C338.867 1410.49 342.263 1412.26 344.339 1415.22C346.414 1418.19 346.916 1421.99 345.676 1425.39L301.989 1545.43H467.011C470.633 1545.43 474.029 1547.19 476.105 1550.16C478.186 1553.12 478.687 1556.92 477.447 1560.33L431.011 1687.9C429.868 1691.04 427.383 1693.37 424.37 1694.47C425.561 1694.91 426.806 1695.21 428.111 1695.21H601.089C605.758 1695.21 609.925 1692.29 611.526 1687.9L657.961 1560.33C659.201 1556.92 658.695 1553.12 656.619 1550.16Z" fill="black"/>
<path d="M572.659 1287.65C574.734 1290.61 575.241 1294.41 574.001 1297.81L532.988 1410.49H711.966L755.739 1290.22C757.34 1285.83 761.507 1282.91 766.176 1282.91H563.565C567.187 1282.91 570.583 1284.68 572.659 1287.65Z" fill="black"/>
<path d="M934.804 1282.91H950.664L991.671 1170.24C992.911 1166.83 992.409 1163.04 990.329 1160.07C988.253 1157.11 984.857 1155.34 981.234 1155.34H812.601C807.938 1155.34 803.766 1158.25 802.17 1162.64L755.734 1290.22C757.335 1285.84 761.502 1282.91 766.171 1282.91H927.3H934.804Z" fill="black"/>
<path d="M1126.81 1247.55L1147.39 1192.04C1149.16 1187.26 1149.66 1183.28 1148.9 1180.11C1148.13 1176.94 1146.24 1174.61 1143.23 1173.12C1140.23 1171.64 1136.96 1170.6 1133.43 1170.02C1129.88 1169.43 1125.66 1169.14 1120.75 1169.14H1089.69L1052.58 1269.28H1082.66C1106.72 1269.28 1121.44 1262.04 1126.81 1247.55ZM1165.36 1192.23L1144.72 1247.93C1136.27 1270.71 1114.46 1282.09 1079.27 1282.09H1029.01L1075.69 1156.14H1125.76C1161.08 1156.14 1174.28 1168.17 1165.36 1192.23Z" fill="black"/>
<path d="M1299.62 1200.19L1306.09 1182.73C1309.59 1173.29 1303.19 1168.56 1286.89 1168.56H1260.49L1242.94 1215.91H1267.59C1276.52 1215.91 1283.52 1214.81 1288.6 1212.61C1293.69 1210.41 1297.36 1206.28 1299.62 1200.19ZM1295.85 1282.09H1272.75L1256.58 1228.34H1238.34L1218.42 1282.09H1199.59L1246.27 1156.14H1290.52C1306.3 1156.14 1317.03 1157.72 1322.72 1160.89C1328.4 1164.07 1329.37 1170.69 1325.63 1180.79L1317.58 1202.53C1314.7 1210.28 1309.36 1216.14 1301.55 1220.08C1293.75 1224.04 1285.32 1226 1276.26 1226L1295.85 1282.09Z" fill="black"/>
<path d="M1453.61 1249.68L1475.83 1189.71C1481.58 1174.19 1472.82 1166.42 1449.53 1166.42C1444.61 1166.42 1440.18 1166.71 1436.2 1167.3C1432.24 1167.88 1428.2 1168.98 1424.11 1170.6C1420.02 1172.22 1416.42 1174.61 1413.3 1177.78C1410.19 1180.95 1407.74 1184.93 1405.97 1189.71L1383.74 1249.68C1378.37 1264.17 1387.39 1271.42 1410.81 1271.42C1433.97 1271.42 1448.23 1264.17 1453.61 1249.68ZM1493.93 1190.1L1471.78 1249.88C1469.23 1256.73 1465.42 1262.56 1460.36 1267.34C1455.28 1272.13 1449.48 1275.65 1442.94 1277.91C1436.41 1280.18 1430.19 1281.77 1424.3 1282.67C1418.4 1283.57 1412.22 1284.03 1405.75 1284.03C1370.56 1284.03 1357.18 1272.65 1365.62 1249.88L1387.7 1190.29C1396.63 1166.23 1418.68 1154.2 1453.87 1154.2C1489.44 1154.2 1502.8 1166.17 1493.93 1190.1Z" fill="black"/>
<path d="M1635.46 1282.09H1612.76L1583.45 1176.32L1544.25 1282.09H1527.76L1574.44 1156.14H1597.14L1627.09 1260.16L1665.65 1156.14H1682.14L1635.46 1282.09Z" fill="black"/>
<path d="M1793.43 1282.09H1706.88L1753.56 1156.14H1838.17L1833.28 1169.34H1767.49L1752.24 1210.48H1811.62L1806.74 1223.67H1747.34L1730.59 1268.89H1798.32L1793.43 1282.09Z" fill="black"/>
<path d="M2041.72 1200.19L2048.19 1182.73C2051.7 1173.29 2045.3 1168.56 2029 1168.56H2002.6L1985.05 1215.91H2009.7C2018.63 1215.91 2025.63 1214.81 2030.71 1212.61C2035.79 1210.41 2039.47 1206.28 2041.72 1200.19ZM2037.96 1282.09H2014.86L1998.69 1228.34H1980.44L1960.52 1282.09H1941.7L1988.38 1156.14H2032.63C2048.41 1156.14 2059.14 1157.72 2064.83 1160.89C2070.51 1164.07 2071.49 1170.69 2067.74 1180.79L2059.69 1202.53C2056.81 1210.28 2051.47 1216.14 2043.66 1220.08C2035.86 1224.04 2027.43 1226 2018.38 1226L2037.96 1282.09Z" fill="black"/>
<path d="M2186.97 1230.86L2186.7 1173.99H2184.95L2142.54 1230.86H2186.97ZM2206.6 1282.09H2187L2186.81 1243.86H2132.86L2104.52 1282.09H2085.89L2182.64 1156.14H2204.38L2206.6 1282.09Z" fill="black"/>
<path d="M2346.59 1280.34C2334.42 1282.8 2322.19 1284.03 2309.9 1284.03C2274.58 1284.03 2261.14 1272.64 2269.58 1249.88L2291.73 1190.1C2300.65 1166.04 2322.78 1154 2358.09 1154C2369.86 1154 2380.93 1155.24 2391.27 1157.69L2386.09 1171.66C2374.82 1168.56 2364.01 1167.01 2353.66 1167.01C2348.74 1167.01 2344.31 1167.29 2340.34 1167.88C2336.37 1168.46 2332.3 1169.5 2328.12 1170.99C2323.95 1172.47 2320.3 1174.81 2317.19 1177.97C2314.08 1181.14 2311.63 1185.12 2309.86 1189.91L2287.99 1248.9C2282.62 1263.39 2291.96 1270.63 2316.03 1270.63C2326.38 1270.63 2338.34 1269.09 2351.91 1265.98L2346.59 1280.34Z" fill="black"/>
<path d="M2428.61 1282.09H2409.79L2456.47 1156.14H2475.29L2428.61 1282.09Z" fill="black"/>
<path d="M2607.73 1282.09H2585.03L2555.72 1176.32L2516.52 1282.09H2500.03L2546.71 1156.14H2569.41L2599.36 1260.16L2637.92 1156.14H2654.41L2607.73 1282.09Z" fill="black"/>
<path d="M2781.11 1278.21C2762.85 1282.09 2746.67 1284.03 2732.57 1284.03C2727.27 1284.03 2722.34 1283.8 2717.79 1283.35C2713.22 1282.9 2708.51 1281.92 2703.63 1280.44C2698.75 1278.95 2694.77 1277.01 2691.72 1274.62C2688.65 1272.23 2686.63 1268.89 2685.62 1264.62C2684.62 1260.35 2685.14 1255.43 2687.2 1249.88L2709.29 1190.29C2712.02 1182.92 2716.24 1176.68 2721.95 1171.57C2727.66 1166.46 2734.18 1162.74 2741.52 1160.41C2748.85 1158.08 2755.6 1156.47 2761.75 1155.56C2767.91 1154.65 2774.22 1154.2 2780.7 1154.2C2796.22 1154.2 2810.32 1155.24 2823.01 1157.3L2817.62 1171.86C2813.13 1170.69 2806.48 1169.63 2797.65 1168.66C2788.82 1167.68 2781.69 1167.2 2776.26 1167.2C2749.74 1167.2 2733.64 1174.84 2727.99 1190.1L2705.97 1249.49C2704.4 1253.76 2704.3 1257.41 2705.7 1260.45C2707.1 1263.5 2709.68 1265.75 2713.47 1267.24C2717.25 1268.73 2721.13 1269.77 2725.12 1270.35C2729.11 1270.93 2733.57 1271.22 2738.49 1271.22C2747.15 1271.22 2756.83 1270.05 2767.53 1267.73L2783.85 1223.67H2754.36L2759.25 1210.48H2806.21L2781.11 1278.21Z" fill="black"/>
</g>
<defs>
<clipPath id="clip0_102_203">
<rect width="2854" height="2854" fill="white"/>
</clipPath>
</defs>
</svg>
