<svg width="2419" height="2419" viewBox="0 0 2419 2419" fill="none" xmlns="http://www.w3.org/2000/svg">
<path d="M1476.08 635.244C1471.59 628.829 1464.24 625.004 1456.4 625.004H1080.87C1077.68 625.004 1074.69 625.82 1071.85 626.986C1076.01 628.713 1079.72 631.453 1082.37 635.244C1086.86 641.658 1087.95 649.869 1085.26 657.24L996.498 901.014H1355.88C1363.72 901.014 1371.07 904.84 1375.57 911.254C1380.06 917.68 1381.16 925.891 1378.47 933.25L1478.99 657.24C1481.67 649.869 1480.57 641.658 1476.08 635.244Z" fill="white"/>
<path d="M1557.3 1479.19C1552.81 1472.78 1545.46 1468.95 1537.62 1468.95H1183.38L1277.95 1209.26C1280.64 1201.9 1279.55 1193.69 1275.05 1187.26C1270.56 1180.85 1263.21 1177.02 1255.36 1177.02H895.981L984.756 933.246C987.44 925.875 986.355 917.676 981.85 911.25C977.358 904.836 970.007 901.01 962.165 901.01H631.475L720.25 657.236C722.934 649.865 721.849 641.654 717.345 635.24C712.853 628.814 705.501 625 697.66 625H259.105C248.999 625 239.968 631.309 236.514 640.803L136 916.813C139.454 907.332 148.485 901.01 158.579 901.01H597.146C604.987 901.01 612.339 904.836 616.831 911.25C621.323 917.676 622.42 925.875 619.737 933.246L530.961 1177.02H861.663C869.504 1177.02 876.856 1180.85 881.348 1187.26C885.841 1193.69 886.926 1201.9 884.242 1209.26L789.679 1468.95H1146.88C1154.72 1468.95 1162.07 1472.78 1166.57 1479.19C1171.07 1485.61 1172.15 1493.82 1169.47 1501.19L1068.96 1777.2C1066.48 1783.98 1061.1 1789.02 1054.58 1791.41C1057.16 1792.35 1059.86 1793 1062.68 1793H1437.1C1447.21 1793 1456.23 1786.68 1459.69 1777.2L1560.21 1501.19C1562.89 1493.82 1561.8 1485.61 1557.3 1479.19Z" fill="white"/>
<path d="M1375.56 911.251C1380.06 917.665 1381.15 925.876 1378.47 933.247L1289.69 1177.02H1677.11L1771.86 916.814C1775.32 907.321 1784.34 901.011 1794.45 901.011H1355.88C1363.72 901.011 1371.07 904.836 1375.56 911.251Z" fill="white"/>
<path d="M2159.46 901.011H2193.79L2282.55 657.237C2285.23 649.866 2284.15 641.655 2279.65 635.241C2275.15 628.826 2267.8 625.001 2259.96 625.001H1894.94C1884.85 625.001 1875.82 631.311 1872.36 640.804L1771.85 916.814C1775.31 907.333 1784.33 901.011 1794.44 901.011H2143.21H2159.46Z" fill="white"/>
</svg>
