<svg width="20888" height="9033" viewBox="0 0 20888 9033" fill="none" xmlns="http://www.w3.org/2000/svg">
<path d="M4990.34 1568.36L5409.31 1253.07L5117.28 2567.82L5102.24 2578.48L4006.32 4828.2L5235.42 4902.38L5239.36 4903.06L6482.32 7615.72L6557.68 8129.54L5547.69 7214.3L5540.84 7208.66L4134.17 5139L3459.63 6166.7L493.565 5881.36L-4.30543e-05 5686.4L1289.26 5272.02L3814.29 5101.99L3262.65 4001.14L3258.61 4001.07L4990.34 1568.36Z" fill="#0A7EE9"/>
<path d="M20336.2 6066.63L19487.8 6066.63C19369.6 6066.63 19259.9 6055.87 19158.8 6034.37C19055.6 6012.86 18968.5 5975.23 18897.5 5921.47C18826.6 5869.86 18773.9 5798.89 18739.5 5708.57C18705.1 5620.41 18697.5 5508.58 18716.9 5373.1C18736.3 5239.77 18773.9 5127.95 18829.8 5037.63C18885.7 4947.31 18955.6 4875.27 19039.5 4821.51C19121.2 4767.75 19215.8 4729.04 19323.3 4705.38C19428.7 4683.88 19541.6 4673.12 19662 4673.12L20029.8 4673.12L20152.3 3782.83L20655.5 3782.83L20336.2 6066.63ZM19968.5 5098.92L19633 5098.92C19587.8 5098.92 19543.7 5103.22 19500.7 5111.82C19457.7 5120.42 19417.9 5134.4 19381.4 5153.75C19344.8 5175.26 19313.7 5203.21 19287.8 5237.62C19262 5274.18 19245.9 5319.34 19239.5 5373.1C19230.9 5431.16 19238.4 5477.4 19262 5511.81C19283.5 5548.36 19314.7 5576.32 19355.6 5595.67C19394.3 5615.03 19439.5 5626.86 19491.1 5631.16C19540.5 5637.61 19588.9 5640.83 19636.2 5640.83L19894.3 5640.83L19968.5 5098.92ZM18497.9 6066.63L17614.1 6066.63C17498 6066.63 17389.4 6054.8 17288.3 6031.14C17187.2 6009.64 17101.2 5972.01 17030.2 5918.24C16959.3 5866.63 16906.6 5795.67 16872.2 5705.35C16837.8 5617.18 16830.2 5506.43 16849.6 5373.1C16873.2 5211.82 16934.5 5074.19 17033.5 4960.21C17132.4 4848.39 17264.6 4777.42 17430.2 4747.32L16985.1 3782.83L17588.3 3782.83L17939.9 4695.7L18188.3 4695.7L18314.1 3782.83L18817.3 3782.83L18497.9 6066.63ZM18127 5121.5L17830.2 5121.5C17785 5121.5 17737.7 5122.57 17688.3 5124.72C17636.7 5129.02 17589.4 5138.7 17546.3 5153.75C17503.3 5170.96 17465.7 5196.76 17433.4 5231.17C17401.2 5265.58 17380.8 5313.96 17372.2 5376.33C17363.6 5434.39 17368.9 5480.62 17388.3 5515.03C17407.6 5549.44 17434.5 5575.25 17468.9 5592.45C17503.3 5611.8 17544.2 5624.71 17591.5 5631.16C17636.7 5637.61 17681.8 5640.83 17727 5640.83L18056 5640.83L18127 5121.5ZM16883.7 4924.73C16857.9 5107.52 16804.1 5273.1 16722.4 5421.49C16638.5 5569.87 16535.3 5695.67 16412.7 5798.89C16288 5904.27 16146.1 5984.91 15986.9 6040.82C15827.8 6096.73 15659 6124.69 15480.5 6124.69C15302 6124.69 15141.8 6096.73 14999.9 6040.82C14857.9 5984.91 14739.7 5904.27 14645 5798.89C14550.4 5695.67 14482.7 5569.87 14441.8 5421.49C14401 5273.1 14393.4 5107.52 14419.2 4924.73C14445 4741.94 14498.8 4576.35 14580.5 4427.97C14662.2 4279.59 14765.5 4152.71 14890.2 4047.34C15014.9 3944.12 15156.8 3864.55 15316 3808.64C15473 3752.73 15640.7 3724.77 15819.2 3724.77C15997.7 3724.77 16159 3752.73 16303 3808.64C16445 3864.55 16563.2 3944.12 16657.9 4047.34C16752.5 4152.71 16820.2 4279.59 16861.1 4427.97C16901.9 4576.35 16909.5 4741.94 16883.7 4924.73ZM16361.1 4924.73C16376.2 4817.21 16372.9 4718.28 16351.4 4627.96C16329.9 4539.8 16293.4 4462.38 16241.8 4395.71C16188 4331.2 16120.3 4280.66 16038.5 4244.11C15956.8 4207.55 15862.2 4189.27 15754.7 4189.27C15647.1 4189.27 15547.2 4207.55 15454.7 4244.11C15362.2 4280.66 15280.5 4331.2 15209.5 4395.71C15138.6 4462.38 15080.5 4539.8 15035.3 4627.96C14988 4718.28 14956.8 4817.21 14941.8 4924.73C14926.7 5030.1 14930 5127.95 14951.5 5218.27C14970.8 5308.59 15007.4 5386 15061.1 5450.52C15114.9 5517.18 15182.6 5568.79 15264.4 5605.35C15346.1 5641.91 15440.7 5660.19 15548.2 5660.19C15655.7 5660.19 15755.7 5641.91 15848.2 5605.35C15940.7 5568.79 16022.4 5517.18 16093.4 5450.52C16164.3 5386 16223.5 5308.59 16270.8 5218.27C16315.9 5127.95 16346 5030.1 16361.1 4924.73ZM11981.5 6066.63L11478.3 6066.63L11797.7 3782.83L12300.9 3782.83L11981.5 6066.63ZM11214.1 6066.63L10452.9 6066.63L10136.8 4576.35L10130.3 4576.35L9391.63 6066.63L8633.59 6066.63L8952.93 3782.83L9456.14 3782.83L9210.99 5534.39L9217.44 5534.39L10062.6 3782.83L10446.4 3782.83L10778.7 5534.39L10785.1 5534.39L11030.3 3782.83L11533.5 3782.83L11214.1 6066.63ZM8645.41 4924.73C8619.6 5107.52 8565.84 5273.1 8484.12 5421.49C8400.25 5569.87 8297.03 5695.67 8174.46 5798.89C8049.73 5904.27 7907.8 5984.91 7748.66 6040.82C7589.53 6096.73 7420.72 6124.69 7242.23 6124.69C7063.74 6124.69 6903.53 6096.73 6761.6 6040.82C6619.67 5984.91 6501.39 5904.27 6406.77 5798.89C6312.15 5695.67 6244.41 5569.87 6203.55 5421.49C6162.69 5273.1 6155.17 5107.52 6180.97 4924.73C6206.78 4741.94 6260.54 4576.35 6342.26 4427.97C6423.98 4279.59 6527.2 4152.71 6651.93 4047.34C6776.65 3944.12 6918.58 3864.55 7077.72 3808.64C7234.7 3752.72 7402.44 3724.77 7580.93 3724.77C7759.42 3724.77 7920.7 3752.72 8064.78 3808.64C8206.71 3864.55 8324.99 3944.12 8419.61 4047.34C8514.23 4152.71 8581.97 4279.59 8622.83 4427.97C8663.69 4576.35 8671.21 4741.94 8645.41 4924.73ZM8122.84 4924.73C8137.9 4817.21 8134.67 4718.28 8113.17 4627.96C8091.66 4539.79 8055.1 4462.38 8003.49 4395.71C7949.73 4331.2 7881.99 4280.66 7800.27 4244.11C7718.56 4207.55 7623.94 4189.27 7516.41 4189.27C7408.89 4189.27 7308.89 4207.55 7216.42 4244.11C7123.95 4280.66 7042.24 4331.2 6971.27 4395.71C6900.3 4462.38 6842.24 4539.79 6797.08 4627.96C6749.77 4718.28 6718.59 4817.2 6703.54 4924.73C6688.48 5030.1 6691.71 5127.95 6713.21 5218.27C6732.57 5308.59 6769.13 5386 6822.89 5450.52C6876.65 5517.18 6944.39 5568.79 7026.11 5605.35C7107.82 5641.91 7202.45 5660.19 7309.97 5660.19C7417.49 5660.19 7517.49 5641.91 7609.96 5605.35C7702.43 5568.79 7784.15 5517.18 7855.11 5450.52C7926.08 5386 7985.21 5308.59 8032.53 5218.27C8077.68 5127.95 8107.79 5030.1 8122.84 4924.73Z" fill="white"/>
<path d="M13701.2 4972.82L14304.4 6063.11L13672.2 6063.11L13298 5263.13L12717.4 6063.11L12107.7 6063.11L12998 4982.5L12340 3779.31L12656.1 3779.31L12972.2 3779.31L13401.2 4698.64L14072.2 3779.31L14668.9 3779.31L13701.2 4972.82Z" fill="white"/>
<path fill-rule="evenodd" clip-rule="evenodd" d="M11298.1 7223.87L11642 6527.8L13077.9 5042.41L12935 4767.66L15027.1 2853.89L15478.5 2606L15134.6 3302.07L13604.5 4920.67L13761.7 5201.66L11749.6 6975.98L11298.1 7223.87Z" fill="white"/>
</svg>
