<svg width="15805" height="6011" viewBox="0 0 15805 6011" fill="none" xmlns="http://www.w3.org/2000/svg">
<path d="M1117.59 1860.25H1965.95C2084.23 1860.25 2193.9 1871 2294.97 1892.51C2398.2 1914.01 2485.29 1951.65 2556.26 2005.41C2627.22 2057.02 2679.91 2127.99 2714.32 2218.3C2748.72 2306.47 2756.25 2418.3 2736.9 2553.78C2717.54 2687.11 2679.91 2798.93 2624 2889.25C2568.08 2979.57 2498.19 3051.61 2414.33 3105.37C2332.61 3159.13 2237.99 3197.84 2130.46 3221.5C2025.09 3243 1912.19 3253.75 1791.77 3253.75H1424.04L1301.46 4144.05H798.25L1117.59 1860.25ZM1485.32 2827.96H1820.8C1865.96 2827.96 1910.04 2823.66 1953.05 2815.06C1996.06 2806.46 2035.84 2792.48 2072.4 2773.12C2108.96 2751.62 2140.14 2723.66 2165.95 2689.26C2191.75 2652.7 2207.88 2607.54 2214.33 2553.78C2222.93 2495.71 2215.41 2449.48 2191.75 2415.07C2170.25 2378.51 2139.07 2350.56 2098.21 2331.2C2059.5 2311.85 2014.34 2300.02 1962.73 2295.72C1913.27 2289.27 1864.88 2286.04 1817.57 2286.04H1559.52L1485.32 2827.96ZM2955.86 1860.25H3839.71C3955.83 1860.25 4064.43 1872.08 4165.5 1895.73C4266.57 1917.24 4352.59 1954.87 4423.56 2008.63C4494.52 2060.25 4547.21 2131.21 4581.62 2221.53C4616.02 2309.7 4623.55 2420.45 4604.2 2553.78C4580.54 2715.06 4519.25 2852.69 4420.33 2966.67C4321.41 3078.49 4189.16 3149.46 4023.57 3179.56L4468.72 4144.05H3865.51L3513.91 3231.17H3265.53L3139.73 4144.05H2636.52L2955.86 1860.25ZM3326.82 2805.38H3623.58C3668.74 2805.38 3716.05 2804.31 3765.52 2802.16C3817.13 2797.86 3864.44 2788.18 3907.45 2773.12C3950.46 2755.92 3988.09 2730.12 4020.35 2695.71C4052.6 2661.3 4073.03 2612.92 4081.63 2550.55C4090.24 2492.49 4084.86 2446.25 4065.51 2411.85C4046.15 2377.44 4019.27 2351.63 3984.86 2334.43C3950.46 2315.08 3909.6 2302.17 3862.29 2295.72C3817.13 2289.27 3771.97 2286.04 3726.81 2286.04H3397.79L3326.82 2805.38ZM4570.13 3002.15C4595.93 2819.36 4649.69 2653.77 4731.41 2505.39C4815.28 2357.01 4918.5 2231.21 5041.08 2127.99C5165.8 2022.61 5307.74 1941.97 5466.87 1886.06C5626 1830.15 5794.82 1802.19 5973.3 1802.19C6151.79 1802.19 6312 1830.15 6453.93 1886.06C6595.86 1941.97 6714.14 2022.61 6808.76 2127.99C6903.38 2231.21 6971.12 2357.01 7011.98 2505.39C7052.84 2653.77 7060.36 2819.36 7034.56 3002.15C7008.75 3184.94 6954.99 3350.52 6873.27 3498.91C6791.56 3647.29 6688.33 3774.17 6563.61 3879.54C6438.88 3982.76 6296.95 4062.33 6137.81 4118.24C5980.83 4174.15 5813.09 4202.11 5634.61 4202.11C5456.12 4202.11 5294.83 4174.15 5150.75 4118.24C5008.82 4062.33 4890.54 3982.76 4795.92 3879.54C4701.3 3774.17 4633.56 3647.29 4592.71 3498.91C4551.85 3350.52 4544.32 3184.94 4570.13 3002.15ZM5092.69 3002.15C5077.64 3109.67 5080.86 3208.59 5102.37 3298.91C5123.87 3387.08 5160.43 3464.5 5212.04 3531.16C5265.8 3595.68 5333.54 3646.21 5415.26 3682.77C5496.98 3719.33 5591.6 3737.61 5699.12 3737.61C5806.64 3737.61 5906.64 3719.33 5999.11 3682.77C6091.58 3646.21 6173.3 3595.68 6244.26 3531.16C6315.23 3464.5 6373.29 3387.08 6418.45 3298.91C6465.76 3208.59 6496.94 3109.67 6512 3002.15C6527.05 2896.78 6523.82 2798.93 6502.32 2708.61C6482.96 2618.29 6446.41 2540.87 6392.65 2476.36C6338.88 2409.7 6271.14 2358.08 6189.43 2321.53C6107.71 2284.97 6013.09 2266.69 5905.56 2266.69C5798.04 2266.69 5698.04 2284.97 5605.57 2321.53C5513.1 2358.08 5431.39 2409.7 5360.42 2476.36C5289.46 2540.87 5230.32 2618.29 5183.01 2708.61C5137.85 2798.93 5107.74 2896.78 5092.69 3002.15ZM9472.25 1860.25H9975.46L9656.12 4144.05H9152.91L9472.25 1860.25ZM10239.6 1860.25H11000.9L11317 3350.52H11323.5L12062.2 1860.25H12820.2L12500.9 4144.05H11997.6L12242.8 2392.49H12236.4L11391.2 4144.05H11007.4L10675.1 2392.49H10668.7L10423.5 4144.05H9920.3L10239.6 1860.25ZM12808.4 3002.15C12834.2 2819.36 12888 2653.77 12969.7 2505.39C13053.5 2357.01 13156.8 2231.21 13279.3 2127.99C13404.1 2022.61 13546 1941.97 13705.1 1886.06C13864.3 1830.15 14033.1 1802.19 14211.6 1802.19C14390.1 1802.19 14550.3 1830.15 14692.2 1886.06C14834.1 1941.97 14952.4 2022.61 15047 2127.99C15141.6 2231.21 15209.4 2357.01 15250.2 2505.39C15291.1 2653.77 15298.6 2819.36 15272.8 3002.15C15247 3184.94 15193.3 3350.52 15111.5 3498.91C15029.8 3647.29 14926.6 3774.17 14801.9 3879.54C14677.1 3982.76 14535.2 4062.33 14376.1 4118.24C14219.1 4174.15 14051.4 4202.11 13872.9 4202.11C13694.4 4202.11 13533.1 4174.15 13389 4118.24C13247.1 4062.33 13128.8 3982.76 13034.2 3879.54C12939.6 3774.17 12871.8 3647.29 12831 3498.91C12790.1 3350.52 12782.6 3184.94 12808.4 3002.15ZM13330.9 3002.15C13315.9 3109.67 13319.1 3208.59 13340.6 3298.91C13362.1 3387.08 13398.7 3464.5 13450.3 3531.16C13504.1 3595.68 13571.8 3646.21 13653.5 3682.77C13735.2 3719.33 13829.9 3737.61 13937.4 3737.61C14044.9 3737.61 14144.9 3719.33 14237.4 3682.77C14329.8 3646.21 14411.6 3595.68 14482.5 3531.16C14553.5 3464.5 14611.5 3387.08 14656.7 3298.91C14704 3208.59 14735.2 3109.67 14750.3 3002.15C14765.3 2896.78 14762.1 2798.93 14740.6 2708.61C14721.2 2618.29 14684.7 2540.87 14630.9 2476.36C14577.1 2409.7 14509.4 2358.08 14427.7 2321.53C14346 2284.97 14251.3 2266.69 14143.8 2266.69C14036.3 2266.69 13936.3 2284.97 13843.8 2321.53C13751.4 2358.08 13669.6 2409.7 13598.7 2476.36C13527.7 2540.87 13468.6 2618.29 13421.3 2708.61C13376.1 2798.93 13346 2896.78 13330.9 3002.15Z" fill="white"/>
<path d="M7752.58 2954.06L7149.37 1863.77H7781.61L8155.79 2663.75L8736.41 1863.77H9346.07L8455.78 2944.38L9113.82 4147.57H8797.7H8481.58L8052.57 3228.24L7381.62 4147.57H6784.87L7752.58 2954.06Z" fill="white"/>
<path fill-rule="evenodd" clip-rule="evenodd" d="M10155.7 703.004L9811.74 1399.08L8375.87 2884.47L8518.75 3159.22L6426.69 5072.99L5975.25 5320.88L6319.18 4624.81L7849.33 3006.21L7692.07 2725.21L9704.23 950.897L10155.7 703.004Z" fill="white"/>
<path d="M11439.5 4634.04H11776.8C11823.8 4634.04 11867.4 4638.31 11907.6 4646.86C11948.6 4655.41 11983.3 4670.38 12011.5 4691.75C12039.7 4712.27 12060.6 4740.48 12074.3 4776.39C12088 4811.44 12091 4855.9 12083.3 4909.76C12075.6 4962.77 12060.6 5007.23 12038.4 5043.13C12016.2 5079.04 11988.4 5107.68 11955 5129.06C11922.6 5150.43 11884.9 5165.82 11842.2 5175.23C11800.3 5183.77 11755.4 5188.05 11707.5 5188.05H11561.3L11512.6 5542H11312.5L11439.5 4634.04ZM11585.7 5018.77H11719.1C11737 5018.77 11754.6 5017.06 11771.7 5013.64C11788.8 5010.22 11804.6 5004.66 11819.1 4996.97C11833.6 4988.42 11846 4977.3 11856.3 4963.62C11866.6 4949.09 11873 4931.14 11875.5 4909.76C11879 4886.68 11876 4868.3 11866.6 4854.62C11858 4840.08 11845.6 4828.97 11829.4 4821.27C11814 4813.58 11796 4808.88 11775.5 4807.17C11755.8 4804.6 11736.6 4803.32 11717.8 4803.32H11615.2L11585.7 5018.77ZM12206.2 4634.04H12406.3L12279.3 5542H12079.3L12206.2 4634.04ZM12557.5 4634.04H12757.6L12656.3 5357.33H13026.9L13001.2 5542H12430.5L12557.5 4634.04ZM13087.3 5088.02C13097.5 5015.35 13118.9 4949.52 13151.4 4890.53C13184.8 4831.53 13225.8 4781.52 13274.5 4740.48C13324.1 4698.59 13380.5 4666.53 13443.8 4644.3C13507.1 4622.07 13574.2 4610.96 13645.1 4610.96C13716.1 4610.96 13779.8 4622.07 13836.2 4644.3C13892.7 4666.53 13939.7 4698.59 13977.3 4740.48C14014.9 4781.52 14041.8 4831.53 14058.1 4890.53C14074.3 4949.52 14077.3 5015.35 14067.1 5088.02C14056.8 5160.69 14035.4 5226.52 14002.9 5285.51C13970.5 5344.51 13929.4 5394.95 13879.8 5436.84C13830.2 5477.88 13773.8 5509.51 13710.5 5531.74C13648.1 5553.97 13581.5 5565.08 13510.5 5565.08C13439.5 5565.08 13375.4 5553.97 13318.1 5531.74C13261.7 5509.51 13214.7 5477.88 13177.1 5436.84C13139.4 5394.95 13112.5 5344.51 13096.3 5285.51C13080 5226.52 13077 5160.69 13087.3 5088.02ZM13295 5088.02C13289.1 5130.77 13290.3 5170.1 13298.9 5206C13307.4 5241.06 13322 5271.83 13342.5 5298.34C13363.9 5323.99 13390.8 5344.08 13423.3 5358.61C13455.8 5373.15 13493.4 5380.41 13536.1 5380.41C13578.9 5380.41 13618.6 5373.15 13655.4 5358.61C13692.2 5344.08 13724.7 5323.99 13752.9 5298.34C13781.1 5271.83 13804.2 5241.06 13822.1 5206C13840.9 5170.1 13853.3 5130.77 13859.3 5088.02C13865.3 5046.13 13864 5007.23 13855.5 4971.32C13847.8 4935.41 13833.2 4904.63 13811.9 4878.98C13790.5 4852.48 13763.6 4831.96 13731.1 4817.43C13698.6 4802.89 13661 4795.63 13618.2 4795.63C13575.5 4795.63 13535.7 4802.89 13498.9 4817.43C13462.2 4831.96 13429.7 4852.48 13401.5 4878.98C13373.3 4904.63 13349.8 4935.41 13330.9 4971.32C13313 5007.23 13301 5046.13 13295 5088.02ZM14380 4811.02H14121L14145.3 4634.04H14863.5L14839.1 4811.02H14580.1L14477.5 5542H14277.4L14380 4811.02Z" fill="white"/>
</svg>
