<svg width="14746" height="4618" viewBox="0 0 14746 4618" fill="none" xmlns="http://www.w3.org/2000/svg">
<path d="M551.595 1157.26H1399.95C1518.23 1157.26 1627.9 1168.01 1728.98 1189.51C1832.2 1211.02 1919.29 1248.65 1990.26 1302.41C2061.22 1354.02 2113.91 1424.99 2148.32 1515.31C2182.72 1603.48 2190.25 1715.3 2170.9 1850.78C2151.54 1984.11 2113.91 2095.93 2058 2186.25C2002.08 2276.57 1932.19 2348.61 1848.33 2402.38C1766.61 2456.14 1671.99 2494.85 1564.46 2518.5C1459.09 2540.01 1346.19 2550.76 1225.77 2550.76H858.037L735.46 3441.05H232.251L551.595 1157.26ZM919.325 2124.97H1254.8C1299.96 2124.97 1344.04 2120.66 1387.05 2112.06C1430.06 2103.46 1469.84 2089.48 1506.4 2070.13C1542.96 2048.62 1574.14 2020.67 1599.95 1986.26C1625.75 1949.7 1641.88 1904.54 1648.33 1850.78C1656.94 1792.72 1649.41 1746.48 1625.75 1712.08C1604.25 1675.52 1573.07 1647.56 1532.21 1628.21C1493.5 1608.85 1448.34 1597.03 1396.73 1592.73C1347.27 1586.27 1298.88 1583.05 1251.57 1583.05H993.516L919.325 2124.97ZM2389.87 1157.26H3273.71C3389.83 1157.26 3498.43 1169.08 3599.5 1192.74C3700.57 1214.24 3786.59 1251.88 3857.56 1305.64C3928.52 1357.25 3981.21 1428.21 4015.62 1518.53C4050.03 1606.7 4057.55 1717.45 4038.2 1850.78C4014.54 2012.07 3953.25 2149.7 3854.33 2263.67C3755.41 2375.49 3623.16 2446.46 3457.57 2476.57L3902.72 3441.05H3299.51L2947.91 2528.18H2699.53L2573.73 3441.05H2070.52L2389.87 1157.26ZM2760.82 2102.39H3057.59C3102.75 2102.39 3150.06 2101.31 3199.52 2099.16C3251.13 2094.86 3298.44 2085.18 3341.45 2070.13C3384.46 2052.93 3422.09 2027.12 3454.35 1992.71C3486.6 1958.3 3507.03 1909.92 3515.63 1847.56C3524.24 1789.49 3518.86 1743.26 3499.51 1708.85C3480.15 1674.44 3453.27 1648.64 3418.86 1631.43C3384.46 1612.08 3343.6 1599.18 3296.29 1592.73C3251.13 1586.27 3205.97 1583.05 3160.81 1583.05H2831.79L2760.82 2102.39ZM4004.13 2299.15C4029.93 2116.36 4083.69 1950.78 4165.41 1802.4C4249.28 1654.01 4352.5 1528.21 4475.08 1424.99C4599.81 1319.62 4741.74 1238.97 4900.87 1183.06C5060.01 1127.15 5228.82 1099.19 5407.31 1099.19C5585.79 1099.19 5746 1127.15 5887.93 1183.06C6029.87 1238.97 6148.14 1319.62 6242.76 1424.99C6337.38 1528.21 6405.12 1654.01 6445.98 1802.4C6486.84 1950.78 6494.37 2116.36 6468.56 2299.15C6442.75 2481.94 6388.99 2647.53 6307.28 2795.91C6225.56 2944.29 6122.34 3071.17 5997.61 3176.54C5872.88 3279.77 5730.95 3359.33 5571.82 3415.25C5414.83 3471.16 5247.1 3499.11 5068.61 3499.11C4890.12 3499.11 4728.83 3471.16 4584.75 3415.25C4442.82 3359.33 4324.55 3279.77 4229.93 3176.54C4135.3 3071.17 4067.57 2944.29 4026.71 2795.91C3985.85 2647.53 3978.32 2481.94 4004.13 2299.15ZM4526.69 2299.15C4511.64 2406.68 4514.86 2505.6 4536.37 2595.92C4557.87 2684.09 4594.43 2761.5 4646.04 2828.17C4699.8 2892.68 4767.54 2943.22 4849.26 2979.78C4930.98 3016.33 5025.6 3034.61 5133.12 3034.61C5240.64 3034.61 5340.64 3016.33 5433.11 2979.78C5525.58 2943.22 5607.3 2892.68 5678.26 2828.17C5749.23 2761.5 5807.29 2684.09 5852.45 2595.92C5899.76 2505.6 5930.94 2406.68 5946 2299.15C5961.05 2193.78 5957.82 2095.93 5936.32 2005.61C5916.97 1915.3 5880.41 1837.88 5826.65 1773.36C5772.88 1706.7 5705.14 1655.09 5623.43 1618.53C5541.71 1581.97 5447.09 1563.69 5339.57 1563.69C5232.04 1563.69 5132.05 1581.97 5039.58 1618.53C4947.11 1655.09 4865.39 1706.7 4794.42 1773.36C4723.46 1837.88 4664.32 1915.3 4617.01 2005.61C4571.85 2095.93 4541.74 2193.78 4526.69 2299.15ZM8906.26 1157.26H9409.46L9090.12 3441.05H8586.91L8906.26 1157.26ZM9673.64 1157.26H10434.9L10751 2647.53H10757.5L11496.2 1157.26H12254.2L11934.9 3441.05H11431.7L11676.8 1689.5H11670.4L10825.2 3441.05H10441.4L10109.1 1689.5H10102.7L9857.51 3441.05H9354.3L9673.64 1157.26ZM12242.4 2299.15C12268.2 2116.36 12322 1950.78 12403.7 1802.4C12487.5 1654.01 12590.8 1528.21 12713.3 1424.99C12838.1 1319.62 12980 1238.97 13139.1 1183.06C13298.3 1127.15 13467.1 1099.19 13645.6 1099.19C13824.1 1099.19 13984.3 1127.15 14126.2 1183.06C14268.1 1238.97 14386.4 1319.62 14481 1424.99C14575.6 1528.21 14643.4 1654.01 14684.2 1802.4C14725.1 1950.78 14732.6 2116.36 14706.8 2299.15C14681 2481.94 14627.3 2647.53 14545.5 2795.91C14463.8 2944.29 14360.6 3071.17 14235.9 3176.54C14111.1 3279.77 13969.2 3359.33 13810.1 3415.25C13653.1 3471.16 13485.4 3499.11 13306.9 3499.11C13128.4 3499.11 12967.1 3471.16 12823 3415.25C12681.1 3359.33 12562.8 3279.77 12468.2 3176.54C12373.6 3071.17 12305.8 2944.29 12265 2795.91C12224.1 2647.53 12216.6 2481.94 12242.4 2299.15ZM12764.9 2299.15C12749.9 2406.68 12753.1 2505.6 12774.6 2595.92C12796.1 2684.09 12832.7 2761.5 12884.3 2828.17C12938.1 2892.68 13005.8 2943.22 13087.5 2979.78C13169.2 3016.33 13263.9 3034.61 13371.4 3034.61C13478.9 3034.61 13578.9 3016.33 13671.4 2979.78C13763.8 2943.22 13845.6 2892.68 13916.5 2828.17C13987.5 2761.5 14045.6 2684.09 14090.7 2595.92C14138 2505.6 14169.2 2406.68 14184.3 2299.15C14199.3 2193.78 14196.1 2095.93 14174.6 2005.61C14155.2 1915.3 14118.7 1837.88 14064.9 1773.36C14011.1 1706.7 13943.4 1655.09 13861.7 1618.53C13780 1581.97 13685.3 1563.69 13577.8 1563.69C13470.3 1563.69 13370.3 1581.97 13277.8 1618.53C13185.4 1655.09 13103.6 1706.7 13032.7 1773.36C12961.7 1837.88 12902.6 1915.3 12855.3 2005.61C12810.1 2095.93 12780 2193.78 12764.9 2299.15Z" fill="black"/>
<path d="M7186.58 2251.06L6583.37 1160.77H7215.61L7589.79 1960.74L8170.41 1160.77H8780.07L7889.78 2241.38L8547.82 3444.56H8231.7H7915.58L7486.57 2525.24L6815.62 3444.56H6218.87L7186.58 2251.06Z" fill="black"/>
<path fill-rule="evenodd" clip-rule="evenodd" d="M9589.68 0.00390625L9245.74 696.08L7809.88 2181.47L7952.76 2456.22L5860.7 4369.99L5409.25 4617.89L5753.18 3921.81L7283.33 2303.21L7126.07 2022.21L9138.23 247.897L9589.68 0.00390625Z" fill="black"/>
</svg>
