<svg width="14746" height="14565" viewBox="0 0 14746 14565" fill="none" xmlns="http://www.w3.org/2000/svg">
<path d="M6971.64 1293.13L7411.89 614.147L7685.14 2674.57L7669 2697.99L7272.37 6539.49L9093.21 5995.85L9099.29 5994.74L12338.1 9268.15L12719.5 9972.99L10770.7 9181.47L10757.8 9176.92L7622.35 6922.25L7189.09 8769.24L2738.7 9927.05L1920 9905.94L3569.21 8622.27L7139.09 7038.07L5756.27 5734.68L5750.38 5736.72L6971.64 1293.13Z" fill="white"/>
<path d="M551.595 11104.3H1399.95C1518.23 11104.3 1627.9 11115 1728.98 11136.5C1832.2 11158 1919.29 11195.7 1990.26 11249.4C2061.22 11301 2113.91 11372 2148.32 11462.3C2182.72 11550.5 2190.25 11662.3 2170.9 11797.8C2151.54 11931.1 2113.91 12042.9 2058 12133.3C2002.08 12223.6 1932.19 12295.6 1848.33 12349.4C1766.61 12403.1 1671.99 12441.8 1564.46 12465.5C1459.09 12487 1346.19 12497.8 1225.77 12497.8H858.037L735.46 13388.1H232.251L551.595 11104.3ZM919.325 12072H1254.8C1299.96 12072 1344.04 12067.7 1387.05 12059.1C1430.06 12050.5 1469.84 12036.5 1506.4 12017.1C1542.96 11995.6 1574.14 11967.7 1599.95 11933.3C1625.75 11896.7 1641.88 11851.5 1648.33 11797.8C1656.94 11739.7 1649.41 11693.5 1625.75 11659.1C1604.25 11622.5 1573.07 11594.6 1532.21 11575.2C1493.5 11555.9 1448.34 11544 1396.73 11539.7C1347.27 11533.3 1298.88 11530 1251.57 11530H993.516L919.325 12072ZM2389.87 11104.3H3273.71C3389.83 11104.3 3498.43 11116.1 3599.5 11139.7C3700.57 11161.2 3786.59 11198.9 3857.56 11252.6C3928.52 11304.2 3981.21 11375.2 4015.62 11465.5C4050.03 11553.7 4057.55 11664.5 4038.2 11797.8C4014.54 11959.1 3953.25 12096.7 3854.33 12210.7C3755.41 12322.5 3623.16 12393.5 3457.57 12423.6L3902.72 13388.1H3299.51L2947.91 12475.2H2699.53L2573.73 13388.1H2070.52L2389.87 11104.3ZM2760.82 12049.4H3057.59C3102.75 12049.4 3150.06 12048.3 3199.52 12046.2C3251.13 12041.9 3298.44 12032.2 3341.45 12017.1C3384.46 11999.9 3422.09 11974.1 3454.35 11939.7C3486.6 11905.3 3507.03 11856.9 3515.63 11794.6C3524.24 11736.5 3518.86 11690.3 3499.51 11655.9C3480.15 11621.4 3453.27 11595.6 3418.86 11578.4C3384.46 11559.1 3343.6 11546.2 3296.29 11539.7C3251.13 11533.3 3205.97 11530 3160.81 11530H2831.79L2760.82 12049.4ZM4004.13 12246.2C4029.93 12063.4 4083.69 11897.8 4165.41 11749.4C4249.28 11601 4352.5 11475.2 4475.08 11372C4599.81 11266.6 4741.74 11186 4900.87 11130.1C5060.01 11074.1 5228.82 11046.2 5407.31 11046.2C5585.79 11046.2 5746 11074.1 5887.93 11130.1C6029.87 11186 6148.14 11266.6 6242.76 11372C6337.38 11475.2 6405.12 11601 6445.98 11749.4C6486.84 11897.8 6494.37 12063.4 6468.56 12246.2C6442.75 12428.9 6388.99 12594.5 6307.28 12742.9C6225.56 12891.3 6122.34 13018.2 5997.61 13123.5C5872.88 13226.8 5730.95 13306.3 5571.82 13362.2C5414.83 13418.2 5247.1 13446.1 5068.61 13446.1C4890.12 13446.1 4728.83 13418.2 4584.75 13362.2C4442.82 13306.3 4324.55 13226.8 4229.93 13123.5C4135.3 13018.2 4067.57 12891.3 4026.71 12742.9C3985.85 12594.5 3978.32 12428.9 4004.13 12246.2ZM4526.69 12246.2C4511.64 12353.7 4514.86 12452.6 4536.37 12542.9C4557.87 12631.1 4594.43 12708.5 4646.04 12775.2C4699.8 12839.7 4767.54 12890.2 4849.26 12926.8C4930.98 12963.3 5025.6 12981.6 5133.12 12981.6C5240.64 12981.6 5340.64 12963.3 5433.11 12926.8C5525.58 12890.2 5607.3 12839.7 5678.26 12775.2C5749.23 12708.5 5807.29 12631.1 5852.45 12542.9C5899.76 12452.6 5930.94 12353.7 5946 12246.2C5961.05 12140.8 5957.82 12042.9 5936.32 11952.6C5916.97 11862.3 5880.41 11784.9 5826.65 11720.4C5772.88 11653.7 5705.14 11602.1 5623.43 11565.5C5541.71 11529 5447.09 11510.7 5339.57 11510.7C5232.04 11510.7 5132.05 11529 5039.58 11565.5C4947.11 11602.1 4865.39 11653.7 4794.42 11720.4C4723.46 11784.9 4664.32 11862.3 4617.01 11952.6C4571.85 12042.9 4541.74 12140.8 4526.69 12246.2ZM8906.26 11104.3H9409.46L9090.12 13388.1H8586.91L8906.26 11104.3ZM9673.64 11104.3H10434.9L10751 12594.5H10757.5L11496.2 11104.3H12254.2L11934.9 13388.1H11431.7L11676.8 11636.5H11670.4L10825.2 13388.1H10441.4L10109.1 11636.5H10102.7L9857.51 13388.1H9354.3L9673.64 11104.3ZM12242.4 12246.2C12268.2 12063.4 12322 11897.8 12403.7 11749.4C12487.5 11601 12590.8 11475.2 12713.3 11372C12838.1 11266.6 12980 11186 13139.1 11130.1C13298.3 11074.1 13467.1 11046.2 13645.6 11046.2C13824.1 11046.2 13984.3 11074.1 14126.2 11130.1C14268.1 11186 14386.4 11266.6 14481 11372C14575.6 11475.2 14643.4 11601 14684.2 11749.4C14725.1 11897.8 14732.6 12063.4 14706.8 12246.2C14681 12428.9 14627.3 12594.5 14545.5 12742.9C14463.8 12891.3 14360.6 13018.2 14235.9 13123.5C14111.1 13226.8 13969.2 13306.3 13810.1 13362.2C13653.1 13418.2 13485.4 13446.1 13306.9 13446.1C13128.4 13446.1 12967.1 13418.2 12823 13362.2C12681.1 13306.3 12562.8 13226.8 12468.2 13123.5C12373.6 13018.2 12305.8 12891.3 12265 12742.9C12224.1 12594.5 12216.6 12428.9 12242.4 12246.2ZM12764.9 12246.2C12749.9 12353.7 12753.1 12452.6 12774.6 12542.9C12796.1 12631.1 12832.7 12708.5 12884.3 12775.2C12938.1 12839.7 13005.8 12890.2 13087.5 12926.8C13169.2 12963.3 13263.9 12981.6 13371.4 12981.6C13478.9 12981.6 13578.9 12963.3 13671.4 12926.8C13763.8 12890.2 13845.6 12839.7 13916.5 12775.2C13987.5 12708.5 14045.6 12631.1 14090.7 12542.9C14138 12452.6 14169.2 12353.7 14184.3 12246.2C14199.3 12140.8 14196.1 12042.9 14174.6 11952.6C14155.2 11862.3 14118.7 11784.9 14064.9 11720.4C14011.1 11653.7 13943.4 11602.1 13861.7 11565.5C13780 11529 13685.3 11510.7 13577.8 11510.7C13470.3 11510.7 13370.3 11529 13277.8 11565.5C13185.4 11602.1 13103.6 11653.7 13032.7 11720.4C12961.7 11784.9 12902.6 11862.3 12855.3 11952.6C12810.1 12042.9 12780 12140.8 12764.9 12246.2Z" fill="white"/>
<path d="M7186.58 12198.1L6583.37 11107.8H7215.61L7589.79 11907.7L8170.41 11107.8H8780.07L7889.78 12188.4L8547.82 13391.6H8231.7H7915.58L7486.57 12472.2L6815.62 13391.6H6218.87L7186.58 12198.1Z" fill="white"/>
<path fill-rule="evenodd" clip-rule="evenodd" d="M9589.68 9947L9245.74 10643.1L7809.88 12128.5L7952.76 12403.2L5860.7 14317L5409.25 14564.9L5753.18 13868.8L7283.33 12250.2L7126.07 11969.2L9138.23 10194.9L9589.68 9947Z" fill="white"/>
</svg>
