<svg width="20961" height="9033" viewBox="0 0 20961 9033" fill="none" xmlns="http://www.w3.org/2000/svg">
<path d="M4990.34 1568.36L5409.31 1253.07L5117.28 2567.82L5102.24 2578.48L4006.32 4828.2L5235.42 4902.38L5239.36 4903.06L6482.32 7615.72L6557.68 8129.54L5547.69 7214.3L5540.84 7208.66L4134.17 5139L3459.63 6166.7L493.565 5881.36L-4.30543e-05 5686.4L1289.26 5272.02L3814.29 5101.99L3262.65 4001.14L3258.61 4001.07L4990.34 1568.36Z" fill="white"/>
<path d="M6766.6 3763.25H7614.95C7733.23 3763.25 7842.9 3774 7943.98 3795.51C8047.2 3817.01 8134.29 3854.65 8205.26 3908.41C8276.22 3960.02 8328.91 4030.99 8363.32 4121.3C8397.72 4209.47 8405.25 4321.3 8385.9 4456.78C8366.54 4590.11 8328.91 4701.93 8273 4792.25C8217.08 4882.57 8147.19 4954.61 8063.33 5008.37C7981.61 5062.13 7886.99 5100.84 7779.46 5124.5C7674.09 5146 7561.19 5156.75 7440.77 5156.75H7073.04L6950.46 6047.05H6447.25L6766.6 3763.25ZM7134.33 4730.96H7469.8C7514.96 4730.96 7559.04 4726.66 7602.05 4718.06C7645.06 4709.46 7684.84 4695.48 7721.4 4676.12C7757.96 4654.62 7789.14 4626.66 7814.95 4592.26C7840.75 4555.7 7856.88 4510.54 7863.33 4456.78C7871.94 4398.71 7864.41 4352.48 7840.75 4318.07C7819.25 4281.51 7788.07 4253.56 7747.21 4234.2C7708.5 4214.85 7663.34 4203.02 7611.73 4198.72C7562.27 4192.27 7513.88 4189.04 7466.57 4189.04H7208.52L7134.33 4730.96ZM8604.87 3763.25H9488.71C9604.83 3763.25 9713.43 3775.08 9814.5 3798.73C9915.57 3820.24 10001.6 3857.87 10072.6 3911.63C10143.5 3963.25 10196.2 4034.21 10230.6 4124.53C10265 4212.7 10272.6 4323.45 10253.2 4456.78C10229.5 4618.06 10168.3 4755.69 10069.3 4869.67C9970.41 4981.49 9838.16 5052.46 9672.57 5082.56L10117.7 6047.05H9514.51L9162.91 5134.17H8914.53L8788.73 6047.05H8285.52L8604.87 3763.25ZM8975.82 4708.38H9272.59C9317.75 4708.38 9365.06 4707.31 9414.52 4705.16C9466.13 4700.86 9513.44 4691.18 9556.45 4676.12C9599.46 4658.92 9637.09 4633.12 9669.35 4598.71C9701.6 4564.3 9722.03 4515.92 9730.63 4453.55C9739.24 4395.49 9733.86 4349.25 9714.51 4314.85C9695.15 4280.44 9668.27 4254.63 9633.86 4237.43C9599.46 4218.08 9558.6 4205.17 9511.29 4198.72C9466.13 4192.27 9420.97 4189.04 9375.81 4189.04H9046.79L8975.82 4708.38ZM10219.1 4905.15C10244.9 4722.36 10298.7 4556.77 10380.4 4408.39C10464.3 4260.01 10567.5 4134.21 10690.1 4030.99C10814.8 3925.61 10956.7 3844.97 11115.9 3789.06C11275 3733.15 11443.8 3705.19 11622.3 3705.19C11800.8 3705.19 11961 3733.15 12102.9 3789.06C12244.9 3844.97 12363.1 3925.61 12457.8 4030.99C12552.4 4134.21 12620.1 4260.01 12661 4408.39C12701.8 4556.77 12709.4 4722.36 12683.6 4905.15C12657.8 5087.94 12604 5253.52 12522.3 5401.91C12440.6 5550.29 12337.3 5677.17 12212.6 5782.54C12087.9 5885.76 11946 5965.33 11786.8 6021.24C11629.8 6077.15 11462.1 6105.11 11283.6 6105.11C11105.1 6105.11 10943.8 6077.15 10799.8 6021.24C10657.8 5965.33 10539.5 5885.76 10444.9 5782.54C10350.3 5677.17 10282.6 5550.29 10241.7 5401.91C10200.8 5253.52 10193.3 5087.94 10219.1 4905.15ZM10741.7 4905.15C10726.6 5012.67 10729.9 5111.59 10751.4 5201.91C10772.9 5290.08 10809.4 5367.5 10861 5434.16C10914.8 5498.68 10982.5 5549.21 11064.3 5585.77C11146 5622.33 11240.6 5640.61 11348.1 5640.61C11455.6 5640.61 11555.6 5622.33 11648.1 5585.77C11740.6 5549.21 11822.3 5498.68 11893.3 5434.16C11964.2 5367.5 12022.3 5290.08 12067.5 5201.91C12114.8 5111.59 12145.9 5012.67 12161 4905.15C12176.1 4799.78 12172.8 4701.93 12151.3 4611.61C12132 4521.29 12095.4 4443.87 12041.6 4379.36C11987.9 4312.7 11920.1 4261.08 11838.4 4224.53C11756.7 4187.97 11662.1 4169.69 11554.6 4169.69C11447 4169.69 11347 4187.97 11254.6 4224.53C11162.1 4261.08 11080.4 4312.7 11009.4 4379.36C10938.5 4443.87 10879.3 4521.29 10832 4611.61C10786.8 4701.93 10756.7 4799.78 10741.7 4905.15ZM15121.3 3763.25H15624.5L15305.1 6047.05H14801.9L15121.3 3763.25ZM15888.6 3763.25H16649.9L16966 5253.52H16972.5L17711.2 3763.25H18469.2L18149.9 6047.05H17646.7L17891.8 4295.49H17885.4L17040.2 6047.05H16656.4L16324.1 4295.49H16317.7L16072.5 6047.05H15569.3L15888.6 3763.25ZM18457.4 4905.15C18483.2 4722.36 18537 4556.77 18618.7 4408.39C18702.5 4260.01 18805.8 4134.21 18928.3 4030.99C19053.1 3925.61 19195 3844.97 19354.1 3789.06C19513.3 3733.15 19682.1 3705.19 19860.6 3705.19C20039.1 3705.19 20199.3 3733.15 20341.2 3789.06C20483.1 3844.97 20601.4 3925.61 20696 4030.99C20790.6 4134.21 20858.4 4260.01 20899.2 4408.39C20940.1 4556.77 20947.6 4722.36 20921.8 4905.15C20896 5087.94 20842.3 5253.52 20760.5 5401.91C20678.8 5550.29 20575.6 5677.17 20450.9 5782.54C20326.1 5885.76 20184.2 5965.33 20025.1 6021.24C19868.1 6077.15 19700.4 6105.11 19521.9 6105.11C19343.4 6105.11 19182.1 6077.15 19038 6021.24C18896.1 5965.33 18777.8 5885.76 18683.2 5782.54C18588.6 5677.17 18520.8 5550.29 18480 5401.91C18439.1 5253.52 18431.6 5087.94 18457.4 4905.15ZM18979.9 4905.15C18964.9 5012.67 18968.1 5111.59 18989.6 5201.91C19011.1 5290.08 19047.7 5367.5 19099.3 5434.16C19153.1 5498.68 19220.8 5549.21 19302.5 5585.77C19384.2 5622.33 19478.9 5640.61 19586.4 5640.61C19693.9 5640.61 19793.9 5622.33 19886.4 5585.77C19978.8 5549.21 20060.6 5498.68 20131.5 5434.16C20202.5 5367.5 20260.6 5290.08 20305.7 5201.91C20353 5111.59 20384.2 5012.67 20399.3 4905.15C20414.3 4799.78 20411.1 4701.93 20389.6 4611.61C20370.2 4521.29 20333.7 4443.87 20279.9 4379.36C20226.1 4312.7 20158.4 4261.08 20076.7 4224.53C19995 4187.97 19900.3 4169.69 19792.8 4169.69C19685.3 4169.69 19585.3 4187.97 19492.8 4224.53C19400.4 4261.08 19318.6 4312.7 19247.7 4379.36C19176.7 4443.87 19117.6 4521.29 19070.3 4611.61C19025.1 4701.93 18995 4799.78 18979.9 4905.15Z" fill="white"/>
<path d="M13401.6 4857.06L12798.4 3766.77H13430.6L13804.8 4566.75L14385.4 3766.77H14995.1L14104.8 4847.38L14762.8 6050.57H14446.7H14130.6L13701.6 5131.24L13030.6 6050.57H12433.9L13401.6 4857.06Z" fill="white"/>
<path fill-rule="evenodd" clip-rule="evenodd" d="M15804.7 2606L15460.7 3302.08L14024.9 4787.46L14167.8 5062.22L12075.7 6975.99L11624.2 7223.88L11968.2 6527.81L13498.3 4909.21L13341.1 4628.21L15353.2 2853.9L15804.7 2606Z" fill="white"/>
</svg>
